<svg width="64" height="64" viewBox="0 0 64 64" fill="none" xmlns="http://www.w3.org/2000/svg">
<g clip-path="url(#clip0_3233_1210)">
<path d="M32 64C49.6731 64 64 49.6731 64 32C64 14.3269 49.6731 0 32 0C14.3269 0 0 14.3269 0 32C0 49.6731 14.3269 64 32 64Z" fill="#FBE0CC"/>
<path d="M25.488 22.456L18.32 42H13.56L6.392 22.456H10.592L15.968 37.996L21.316 22.456H25.488ZM44.0743 28.512C45.7063 28.512 47.0183 29.016 48.0103 30.024C49.0183 31.016 49.5223 32.408 49.5223 34.2V42H46.1623V34.656C46.1623 33.616 45.8983 32.824 45.3703 32.28C44.8423 31.72 44.1223 31.44 43.2103 31.44C42.2983 31.44 41.5703 31.72 41.0263 32.28C40.4983 32.824 40.2343 33.616 40.2343 34.656V42H36.8743V34.656C36.8743 33.616 36.6103 32.824 36.0823 32.28C35.5543 31.72 34.8343 31.44 33.9223 31.44C32.9943 31.44 32.2583 31.72 31.7143 32.28C31.1863 32.824 30.9223 33.616 30.9223 34.656V42H27.5623V28.704H30.9223V30.312C31.3543 29.752 31.9063 29.312 32.5783 28.992C33.2663 28.672 34.0183 28.512 34.8343 28.512C35.8743 28.512 36.8023 28.736 37.6183 29.184C38.4343 29.616 39.0663 30.24 39.5143 31.056C39.9463 30.288 40.5703 29.672 41.3863 29.208C42.2183 28.744 43.1143 28.512 44.0743 28.512ZM54.1987 42.168C53.5907 42.168 53.0867 41.984 52.6867 41.616C52.3027 41.232 52.1107 40.76 52.1107 40.2C52.1107 39.64 52.3027 39.176 52.6867 38.808C53.0867 38.424 53.5907 38.232 54.1987 38.232C54.7907 38.232 55.2787 38.424 55.6627 38.808C56.0467 39.176 56.2387 39.64 56.2387 40.2C56.2387 40.76 56.0467 41.232 55.6627 41.616C55.2787 41.984 54.7907 42.168 54.1987 42.168Z" fill="#331D2C"/>
</g>
<defs>
<clipPath id="clip0_3233_1210">
<rect width="64" height="64" fill="white"/>
</clipPath>
</defs>
</svg>