<svg width="64" height="64" viewBox="0 0 64 64" fill="none" xmlns="http://www.w3.org/2000/svg">
<circle cx="32" cy="32" r="32" fill="#FBE0CC"/>
<path d="M29.896 20.696L21.48 43H18.12L9.704 20.696H12.808L19.816 39.928L26.824 20.696H29.896ZM39.297 43.288C37.953 43.288 36.7477 43.064 35.681 42.616C34.6143 42.1467 33.7717 41.5067 33.153 40.696C32.5343 39.864 32.193 38.9147 32.129 37.848H35.137C35.2223 38.7227 35.6277 39.4373 36.353 39.992C37.0997 40.5467 38.0703 40.824 39.265 40.824C40.3743 40.824 41.249 40.5787 41.889 40.088C42.529 39.5973 42.849 38.9787 42.849 38.232C42.849 37.464 42.5077 36.8987 41.825 36.536C41.1423 36.152 40.0863 35.7787 38.657 35.416C37.3557 35.0747 36.289 34.7333 35.457 34.392C34.6463 34.0293 33.9423 33.5067 33.345 32.824C32.769 32.12 32.481 31.2027 32.481 30.072C32.481 29.176 32.7477 28.3547 33.281 27.608C33.8143 26.8613 34.5717 26.2747 35.553 25.848C36.5343 25.4 37.6543 25.176 38.913 25.176C40.8543 25.176 42.4223 25.6667 43.617 26.648C44.8117 27.6293 45.4517 28.9733 45.537 30.68H42.625C42.561 29.7627 42.1877 29.0267 41.505 28.472C40.8437 27.9173 39.9477 27.64 38.817 27.64C37.7717 27.64 36.9397 27.864 36.321 28.312C35.7023 28.76 35.393 29.3467 35.393 30.072C35.393 30.648 35.5743 31.128 35.937 31.512C36.321 31.8747 36.7903 32.1733 37.345 32.408C37.921 32.6213 38.7103 32.8667 39.713 33.144C40.9717 33.4853 41.9957 33.8267 42.785 34.168C43.5743 34.488 44.2463 34.9787 44.801 35.64C45.377 36.3013 45.6757 37.1653 45.697 38.232C45.697 39.192 45.4303 40.056 44.897 40.824C44.3637 41.592 43.6063 42.2 42.625 42.648C41.665 43.0747 40.5557 43.288 39.297 43.288ZM50.7358 43.192C50.1811 43.192 49.7118 43 49.3278 42.616C48.9438 42.232 48.7518 41.7627 48.7518 41.208C48.7518 40.6533 48.9438 40.184 49.3278 39.8C49.7118 39.416 50.1811 39.224 50.7358 39.224C51.2691 39.224 51.7171 39.416 52.0798 39.8C52.4638 40.184 52.6558 40.6533 52.6558 41.208C52.6558 41.7627 52.4638 42.232 52.0798 42.616C51.7171 43 51.2691 43.192 50.7358 43.192Z" fill="#331D2C"/>
</svg>
