<svg width="298" height="298" viewBox="0 0 298 298" fill="none" xmlns="http://www.w3.org/2000/svg">
<path d="M229.907 101.584H84.55V95.8413C84.5504 94.16 85.2185 92.5476 86.4074 91.3587C87.5963 90.1698 89.2087 89.5017 90.89 89.5013H227.97C227.736 90.6403 227.619 91.7999 227.618 92.9626V93.1027H107.28V97.9332H228.232L228.348 97.9005C228.731 99.1818 229.254 100.417 229.907 101.584Z" fill="#69D6F9"/>
<path d="M163.63 195.735C164.559 195.735 165.468 196.01 166.24 196.526C167.013 197.042 167.615 197.776 167.971 198.634C168.326 199.492 168.419 200.437 168.238 201.348C168.057 202.259 167.61 203.096 166.953 203.753C166.296 204.41 165.459 204.857 164.548 205.038C163.637 205.219 162.692 205.126 161.834 204.771C160.976 204.415 160.242 203.813 159.726 203.04C159.21 202.268 158.935 201.359 158.935 200.43C158.936 199.185 159.431 197.992 160.311 197.111C161.192 196.231 162.385 195.736 163.63 195.735Z" fill="#FFC077"/>
<path d="M248.347 125.144V179.231C247.233 179.71 246.149 180.257 245.102 180.87L242.654 180.041L242.717 179.852V114.866L248.347 125.144Z" fill="#FFC077"/>
<path d="M248.347 114.027V125.144L242.717 114.863V112.315C244.537 113.056 246.422 113.629 248.347 114.027Z" fill="#331D2C"/>
<path d="M237.461 208.993H227.192L231.989 191.869H235.143C234.316 193.922 233.89 196.115 233.888 198.328C233.917 202.172 235.169 205.907 237.461 208.993Z" fill="#331D2C"/>
<path d="M231.993 191.869L227.197 208.993H87.472C85.2037 208.993 83.0284 208.092 81.4244 206.488C79.8205 204.884 78.9194 202.709 78.9194 200.441V159.595L84.5501 152.403V185.529C84.5505 187.21 85.2186 188.823 86.4075 190.011C87.5964 191.2 89.2088 191.868 90.8901 191.869H231.993ZM168.336 200.43C168.336 199.501 168.061 198.593 167.545 197.82C167.029 197.048 166.296 196.445 165.437 196.089C164.579 195.733 163.635 195.64 162.723 195.821C161.812 196.002 160.975 196.449 160.317 197.105C159.66 197.762 159.212 198.599 159.031 199.51C158.849 200.421 158.941 201.366 159.297 202.224C159.652 203.083 160.253 203.817 161.025 204.334C161.798 204.85 162.706 205.126 163.635 205.127C164.88 205.126 166.075 204.632 166.955 203.751C167.836 202.87 168.331 201.676 168.331 200.43H168.336Z" fill="#FFC077"/>
<path d="M229.97 117.484C230.3 117.475 230.63 117.534 230.938 117.655C231.246 117.776 231.526 117.957 231.763 118.188C232 118.419 232.188 118.695 232.317 119C232.445 119.305 232.511 119.633 232.511 119.964C232.511 120.295 232.445 120.622 232.317 120.927C232.188 121.232 232 121.508 231.763 121.739C231.526 121.97 231.246 122.152 230.938 122.273C230.63 122.394 230.3 122.452 229.97 122.444H172.795C172.304 122.445 171.824 122.3 171.416 122.028C171.008 121.755 170.689 121.368 170.501 120.914C170.314 120.461 170.265 119.962 170.361 119.48C170.457 118.999 170.694 118.557 171.042 118.211C171.271 117.979 171.544 117.795 171.845 117.671C172.146 117.546 172.469 117.482 172.795 117.484H229.97Z" fill="#69D6F9"/>
<path d="M229.97 128.089C230.628 128.089 231.259 128.351 231.724 128.816C232.189 129.281 232.45 129.912 232.45 130.57C232.45 131.228 232.189 131.859 231.724 132.324C231.259 132.79 230.628 133.051 229.97 133.051H143.868C143.21 133.05 142.579 132.788 142.114 132.322C141.649 131.857 141.387 131.225 141.386 130.567C141.389 129.91 141.651 129.281 142.116 128.817C142.582 128.352 143.211 128.091 143.868 128.089H229.97Z" fill="#331D2C"/>
<path d="M229.97 138.697C230.3 138.689 230.63 138.747 230.938 138.868C231.246 138.989 231.526 139.17 231.763 139.401C232 139.632 232.188 139.908 232.317 140.213C232.445 140.518 232.511 140.846 232.511 141.177C232.511 141.508 232.445 141.835 232.317 142.14C232.188 142.445 232 142.721 231.763 142.952C231.526 143.183 231.246 143.365 230.938 143.486C230.63 143.607 230.3 143.665 229.97 143.657H201.722C201.064 143.656 200.433 143.395 199.967 142.929C199.502 142.464 199.24 141.833 199.24 141.175C199.241 140.517 199.503 139.887 199.968 139.422C200.434 138.958 201.065 138.697 201.722 138.697H229.97Z" fill="#69D6F9"/>
<path d="M229.97 149.298C230.628 149.298 231.259 149.559 231.724 150.025C232.189 150.49 232.45 151.121 232.45 151.779C232.45 152.437 232.189 153.068 231.724 153.533C231.259 153.998 230.628 154.26 229.97 154.26H139.048C138.39 154.259 137.758 153.997 137.293 153.531C136.827 153.066 136.565 152.434 136.564 151.776C136.567 151.118 136.83 150.489 137.295 150.025C137.761 149.56 138.391 149.299 139.048 149.298H229.97Z" fill="#331D2C"/>
<path d="M229.97 159.91C230.617 159.926 231.232 160.194 231.684 160.657C232.137 161.121 232.39 161.742 232.39 162.39C232.39 163.037 232.137 163.659 231.684 164.122C231.232 164.586 230.617 164.854 229.97 164.87H182.439C181.78 164.87 181.149 164.608 180.683 164.143C180.218 163.677 179.956 163.046 179.955 162.388C179.957 161.73 180.219 161.1 180.685 160.636C181.15 160.171 181.781 159.91 182.439 159.91H229.97Z" fill="#69D6F9"/>
<path d="M229.97 170.516C230.3 170.508 230.63 170.566 230.938 170.687C231.246 170.808 231.526 170.989 231.763 171.22C232 171.451 232.188 171.727 232.317 172.032C232.445 172.337 232.511 172.665 232.511 172.996C232.511 173.327 232.445 173.654 232.317 173.959C232.188 174.264 232 174.54 231.763 174.771C231.526 175.002 231.246 175.184 230.938 175.305C230.63 175.426 230.3 175.484 229.97 175.476H216.186C215.527 175.475 214.896 175.214 214.431 174.748C213.965 174.283 213.704 173.652 213.703 172.993C213.705 172.336 213.968 171.706 214.433 171.242C214.898 170.778 215.528 170.516 216.186 170.516H229.97Z" fill="#331D2C"/>
<path d="M229.97 181.121C230.628 181.121 231.259 181.383 231.724 181.848C232.189 182.313 232.451 182.944 232.451 183.602C232.451 184.26 232.189 184.891 231.724 185.357C231.259 185.822 230.628 186.083 229.97 186.083H153.512C152.853 186.082 152.222 185.82 151.756 185.355C151.291 184.889 151.029 184.258 151.028 183.599C151.031 182.942 151.293 182.312 151.759 181.848C152.224 181.384 152.854 181.123 153.512 181.121H229.97Z" fill="#69D6F9"/>
<path d="M230.162 106.896L227.757 111.838H153.512C152.854 111.838 152.223 111.577 151.758 111.111C151.292 110.646 151.031 110.015 151.031 109.357C151.031 108.699 151.292 108.068 151.758 107.603C152.223 107.138 152.854 106.876 153.512 106.876H229.97C230.037 106.876 230.095 106.891 230.162 106.896Z" fill="#331D2C"/>
<path d="M87.472 85.3934H229.353C228.727 86.7017 228.263 88.0811 227.97 89.5014H90.8901C89.2088 89.5018 87.5964 90.1698 86.4075 91.3587C85.2186 92.5476 84.5505 94.16 84.5501 95.8413V116.08C82.8033 114.786 80.9141 113.695 78.9194 112.83V93.946C78.9194 91.6777 79.8205 89.5024 81.4244 87.8984C83.0284 86.2945 85.2037 85.3934 87.472 85.3934Z" fill="#FFC077"/>
<path d="M228.35 97.9005L228.234 97.9332H107.28V93.1027H227.624C227.634 94.7286 227.878 96.3446 228.35 97.9005Z" fill="#331D2C"/>
<path d="M202.491 170.516C203.138 170.531 203.754 170.8 204.206 171.263C204.658 171.727 204.911 172.348 204.911 172.996C204.911 173.643 204.658 174.265 204.206 174.728C203.754 175.192 203.138 175.46 202.491 175.476H106.747C106.088 175.475 105.457 175.214 104.992 174.748C104.526 174.283 104.265 173.652 104.264 172.993C104.266 172.336 104.529 171.706 104.994 171.242C105.459 170.778 106.089 170.516 106.747 170.516H202.491Z" fill="#69D6F9"/>
<path d="M188.026 138.697C188.673 138.713 189.289 138.981 189.741 139.444C190.193 139.908 190.446 140.529 190.446 141.177C190.446 141.824 190.193 142.446 189.741 142.909C189.289 143.373 188.673 143.641 188.026 143.657H106.747C106.088 143.656 105.457 143.395 104.992 142.929C104.526 142.464 104.265 141.833 104.264 141.175C104.265 140.517 104.528 139.887 104.993 139.422C105.458 138.958 106.089 138.697 106.747 138.697H188.026Z" fill="#331D2C"/>
<path d="M182.1 221.292L184.136 230.263H181.262H147.234H143.131L147.953 208.993L182.1 221.292Z" fill="#FFC077"/>
<path d="M179.314 208.993L182.1 221.292L147.953 208.993H179.314Z" fill="#331D2C"/>
<path d="M168.741 159.91C169.388 159.926 170.004 160.194 170.456 160.657C170.908 161.121 171.161 161.742 171.161 162.39C171.161 163.037 170.908 163.659 170.456 164.122C170.004 164.586 169.388 164.854 168.741 164.87H106.747C106.088 164.87 105.457 164.608 104.992 164.143C104.526 163.677 104.265 163.046 104.264 162.388C104.265 161.73 104.528 161.1 104.993 160.635C105.458 160.171 106.089 159.91 106.747 159.91H168.741Z" fill="#331D2C"/>
<path d="M159.099 117.484C159.43 117.475 159.759 117.534 160.067 117.655C160.375 117.776 160.656 117.957 160.893 118.188C161.129 118.419 161.318 118.695 161.446 119C161.575 119.305 161.641 119.633 161.641 119.964C161.641 120.295 161.575 120.622 161.446 120.927C161.318 121.232 161.129 121.508 160.893 121.739C160.656 121.97 160.375 122.152 160.067 122.273C159.759 122.394 159.43 122.452 159.099 122.444H106.747C106.416 122.452 106.087 122.394 105.779 122.273C105.471 122.152 105.19 121.97 104.953 121.739C104.716 121.508 104.528 121.232 104.4 120.927C104.271 120.622 104.205 120.295 104.205 119.964C104.205 119.633 104.271 119.305 104.4 119C104.528 118.695 104.716 118.419 104.953 118.188C105.19 117.957 105.471 117.776 105.779 117.655C106.087 117.534 106.416 117.475 106.747 117.484H159.099Z" fill="#331D2C"/>
<path d="M139.814 106.876C140.472 106.876 141.103 107.138 141.568 107.603C142.034 108.068 142.295 108.699 142.295 109.357C142.295 110.015 142.034 110.646 141.568 111.111C141.103 111.577 140.472 111.838 139.814 111.838H106.747C106.088 111.838 105.457 111.576 104.992 111.11C104.526 110.645 104.265 110.014 104.264 109.356C104.266 108.698 104.528 108.068 104.993 107.603C105.459 107.138 106.089 106.877 106.747 106.876H139.814Z" fill="#69D6F9"/>
<path d="M139.814 181.121C140.472 181.121 141.103 181.383 141.568 181.848C142.034 182.313 142.295 182.944 142.295 183.602C142.295 184.26 142.034 184.891 141.568 185.357C141.103 185.822 140.472 186.083 139.814 186.083H106.747C106.088 186.082 105.457 185.82 104.992 185.355C104.526 184.889 104.265 184.258 104.264 183.599C104.266 182.942 104.529 182.312 104.994 181.848C105.459 181.383 106.089 181.122 106.747 181.121H139.814Z" fill="#331D2C"/>
<path d="M130.172 128.089C130.83 128.089 131.461 128.351 131.927 128.816C132.392 129.281 132.653 129.912 132.653 130.57C132.653 131.228 132.392 131.859 131.927 132.324C131.461 132.79 130.83 133.051 130.172 133.051H106.747C106.088 133.05 105.457 132.788 104.992 132.323C104.526 131.857 104.265 131.226 104.264 130.567C104.266 129.91 104.529 129.28 104.994 128.816C105.459 128.351 106.089 128.09 106.747 128.089H130.172Z" fill="#69D6F9"/>
<path d="M125.351 149.298C126.009 149.298 126.64 149.559 127.105 150.025C127.57 150.49 127.832 151.121 127.832 151.779C127.832 152.437 127.57 153.068 127.105 153.533C126.64 153.998 126.009 154.26 125.351 154.26H106.747C106.088 154.259 105.457 153.997 104.992 153.531C104.526 153.066 104.265 152.434 104.264 151.776C104.266 151.119 104.529 150.489 104.994 150.024C105.459 149.56 106.089 149.299 106.747 149.298H125.351Z" fill="#69D6F9"/>
<path d="M92.9492 128.852C93.2761 128.974 93.5614 129.187 93.7714 129.466C93.9814 129.744 94.1074 130.077 94.1347 130.425C94.1619 130.773 94.0892 131.121 93.9251 131.429C93.761 131.737 93.5124 131.992 93.2085 132.163V131.85C93.2085 131.604 93.2085 131.358 93.1891 131.113V131.055C93.1574 130.316 93.0772 129.58 92.9492 128.852Z" fill="#331D2C"/>
<path d="M92.2937 107.508C92.6593 107.507 93.0171 107.614 93.3218 107.816C93.6264 108.019 93.8641 108.307 94.0049 108.644C94.1456 108.982 94.1831 109.354 94.1124 109.712C94.0418 110.071 93.8663 110.401 93.6082 110.66C93.35 110.919 93.0208 111.095 92.6623 111.167C92.3037 111.239 91.9319 111.203 91.594 111.063C91.256 110.923 90.9671 110.687 90.7638 110.383C90.5605 110.079 90.452 109.721 90.452 109.356C90.452 108.867 90.6459 108.398 90.9911 108.051C91.3363 107.705 91.8047 107.51 92.2937 107.508Z" fill="#331D2C"/>
<path d="M92.2937 118.115C92.659 118.114 93.0163 118.222 93.3205 118.424C93.6247 118.627 93.862 118.915 94.0024 119.252C94.1428 119.589 94.18 119.96 94.1093 120.319C94.0386 120.677 93.8631 121.007 93.6051 121.265C93.3471 121.524 93.0182 121.7 92.6599 121.772C92.3017 121.843 91.9303 121.807 91.5927 121.667C91.2551 121.528 90.9665 121.291 90.7635 120.988C90.5604 120.684 90.452 120.327 90.452 119.961C90.452 119.473 90.6459 119.004 90.9912 118.658C91.3364 118.312 91.8048 118.117 92.2937 118.115Z" fill="#331D2C"/>
<path d="M92.2937 139.328C92.7833 139.328 93.2528 139.523 93.599 139.869C93.9453 140.215 94.1398 140.685 94.1398 141.175C94.1398 141.664 93.9453 142.134 93.599 142.48C93.2528 142.826 92.7833 143.021 92.2937 143.021C91.9001 143.011 91.5195 142.878 91.206 142.64C90.8924 142.402 90.662 142.071 90.5474 141.695L90.2941 141.535C90.7293 140.859 91.1204 140.156 91.4652 139.43L91.5472 139.467C91.7006 139.315 92.167 139.328 92.2937 139.328Z" fill="#331D2C"/>
<path d="M92.2937 160.54C92.6593 160.539 93.0171 160.646 93.3218 160.849C93.6264 161.051 93.8641 161.339 94.0049 161.676C94.1456 162.014 94.1831 162.386 94.1124 162.744C94.0418 163.103 93.8663 163.433 93.6082 163.692C93.35 163.951 93.0208 164.128 92.6623 164.199C92.3037 164.271 91.9319 164.235 91.594 164.095C91.256 163.956 90.9671 163.719 90.7638 163.415C90.5605 163.111 90.452 162.753 90.452 162.388C90.452 161.899 90.6459 161.43 90.9911 161.083C91.3363 160.737 91.8047 160.542 92.2937 160.54Z" fill="#331D2C"/>
<path d="M92.2937 171.147C92.659 171.146 93.0163 171.254 93.3205 171.456C93.6247 171.659 93.862 171.947 94.0024 172.284C94.1428 172.621 94.18 172.992 94.1093 173.351C94.0386 173.709 93.8631 174.039 93.6051 174.297C93.3471 174.556 93.0182 174.732 92.6599 174.804C92.3017 174.875 91.9303 174.839 91.5927 174.699C91.2551 174.56 90.9665 174.323 90.7635 174.02C90.5604 173.716 90.452 173.359 90.452 172.993C90.452 172.505 90.6459 172.036 90.9912 171.69C91.3364 171.344 91.8048 171.149 92.2937 171.147Z" fill="#331D2C"/>
<path d="M92.2937 181.753C92.6594 181.752 93.0173 181.859 93.3219 182.062C93.6266 182.264 93.8643 182.552 94.005 182.89C94.1457 183.228 94.1831 183.599 94.1123 183.958C94.0416 184.317 93.866 184.647 93.6077 184.906C93.3494 185.165 93.02 185.341 92.6614 185.413C92.3027 185.484 91.9309 185.448 91.5929 185.308C91.255 185.168 90.9662 184.931 90.7631 184.627C90.56 184.323 90.4517 183.965 90.452 183.599C90.452 183.11 90.6459 182.642 90.9912 182.295C91.3364 181.949 91.8048 181.754 92.2937 181.753Z" fill="#331D2C"/>
<path d="M81.9992 149.307L84.6812 150.575L84.5456 150.864V152.403L78.9149 159.595V150.864C79.974 150.409 81.004 149.889 81.9992 149.307Z" fill="#331D2C"/>
<path d="M72.8208 152.846L72.8729 153.083C70.3816 158.733 67.2109 164.34 63.4964 167.46C62.2904 168.472 61.1302 169.497 60.0157 170.535C59.628 164.714 59.1924 158.896 58.709 153.083C60.8455 153.472 63.0129 153.667 65.1845 153.665C67.7521 153.669 70.3125 153.394 72.8208 152.846Z" fill="#331D2C"/>
<path d="M55.3536 181.089C56.2702 178.942 57.6832 177.043 59.4764 175.549C59.7506 175.337 60.0247 175.124 60.3048 174.922C64.729 171.81 69.5497 169.304 74.6386 167.472C74.5031 167.761 69.3253 178.729 64.3576 182.918C63.2059 183.887 62.0526 184.756 60.9634 185.6C59.8581 186.441 58.8126 187.358 57.8344 188.343C56.7547 189.407 55.9006 190.677 55.3233 192.078C54.746 193.479 54.4573 194.982 54.4745 196.497V196.743H52.3497V196.497C52.3768 193.899 52.619 191.307 53.0739 188.749C53.5073 186.109 54.2733 183.536 55.3536 181.089Z" fill="#69D6F9"/>
<path d="M61.4908 196.497V196.743H58.9072C58.7815 193.918 58.4201 191.108 57.8269 188.343C58.805 187.358 59.8506 186.441 60.9559 185.6C61.2882 191.194 61.4908 195.378 61.4908 196.497Z" fill="#331D2C"/>
<path d="M60.3049 174.917C60.0248 175.124 59.7506 175.337 59.4764 175.549C57.6832 177.043 56.2702 178.942 55.3536 181.089C54.78 180.195 54.0707 179.204 53.2512 178.1C51.347 175.525 48.8796 172.392 46.3481 168.909C43.2997 164.827 40.5784 160.51 38.2097 155.999C38.2097 155.999 38.1948 155.975 38.1709 155.932C37.8174 155.23 37.4786 154.521 37.1548 153.805C26.61 130.548 33.4417 107.359 33.4417 107.359C37.0567 110.656 40.4485 114.191 43.5945 117.938C41.6182 119.686 40.0256 121.826 38.9172 124.22C37.8088 126.615 37.2087 129.213 37.1548 131.852C37.1548 142.164 46.3481 150.809 58.7091 153.084C59.1427 158.141 59.5956 164.375 60.0158 170.536C60.1127 172.006 60.214 173.47 60.3049 174.917Z" fill="#69D6F9"/>
<path d="M52.0368 179.931C52.0368 179.931 52.828 184.641 53.0798 188.744C52.6249 191.302 52.3827 193.894 52.3557 196.492V196.738H50.2384V196.492C50.9834 191.507 50.219 185.895 50.2384 183.243C50.7753 182.106 51.3758 181 52.0368 179.931Z" fill="#331D2C"/>
<path d="M53.2512 178.1C52.828 178.696 52.4227 179.31 52.0368 179.931C51.3758 181.001 50.7753 182.106 50.2384 183.243C48.2842 187.467 47.2569 192.06 47.2256 196.714V196.738H46.3763C46.3249 191.565 45.7907 186.407 44.7805 181.333C45.2677 178.782 45.5255 175.89 45.8369 172.938C45.977 171.608 46.126 170.264 46.3093 168.938L46.348 168.908C48.8795 172.393 51.3469 175.522 53.2512 178.1Z" fill="#69D6F9"/>
<path d="M46.3763 196.743H42.6215C42.3757 183.966 33.7366 179.931 25.0872 172.642C16.1472 165.116 6.84363 145.248 6.84363 145.248C16.1432 148.597 24.9311 153.225 32.9544 158.998C33.2044 159.21 33.465 159.409 33.7351 159.594C39.9931 164.502 43.1803 173.373 44.7805 181.333C45.791 186.409 46.3252 191.568 46.3763 196.743Z" fill="#69D6F9"/>
<path d="M46.348 168.909L46.3092 168.939C46.126 170.265 45.977 171.609 45.8369 172.94C44.9787 167.247 40.4178 164.219 33.7366 159.595C33.4759 159.393 33.2196 159.19 32.9544 158.999C26.8945 153.918 25.0007 141.523 25.0007 141.523C31.9382 145.601 37.6508 155.055 38.1708 155.933L38.2096 156C40.5784 160.511 43.2997 164.827 46.348 168.909Z" fill="#331D2C"/>
<path d="M78.9194 150.864C79.977 150.409 81.0055 149.889 81.9993 149.307L84.6813 150.575L97.7933 156.747L89.3003 142.973C89.6564 142.505 89.9946 142.028 90.303 141.535C90.7385 140.859 91.1297 140.155 91.4742 139.428C92.5708 137.16 93.1625 134.682 93.2085 132.163V131.85C93.2085 131.604 93.2085 131.358 93.1892 131.113" stroke="#331D2C" stroke-width="1.294" stroke-linecap="round" stroke-linejoin="round"/>
<path d="M93.1951 131.054C93.1614 130.316 93.0792 129.58 92.9492 128.852C91.8884 123.676 88.8821 119.105 84.5501 116.08C82.8032 114.786 80.914 113.695 78.9194 112.83C74.5834 110.959 69.9068 110.008 65.1845 110.035C57.2521 109.866 49.5458 112.685 43.5944 117.932C41.6181 119.681 40.0255 121.82 38.9171 124.214C37.8088 126.609 37.2087 129.207 37.1547 131.846C37.1547 142.158 46.348 150.803 58.709 153.078C60.8456 153.467 63.0129 153.662 65.1845 153.661C67.7521 153.665 70.3125 153.39 72.8208 152.841C74.9133 152.383 76.9559 151.722 78.9194 150.865" stroke="#331D2C" stroke-width="1.294" stroke-linecap="round" stroke-linejoin="round"/>
<path d="M230.166 106.896L231.536 104.081C230.929 103.29 230.381 102.455 229.897 101.584C229.246 100.417 228.726 99.1815 228.346 97.9005C227.874 96.3445 227.63 94.7285 227.621 93.1027V92.9626C227.621 91.8001 227.737 90.6404 227.97 89.5014C228.262 88.0812 228.725 86.7018 229.35 85.3934C233.303 77.0733 243.585 71.1431 255.648 71.1431C271.123 71.1431 283.674 80.91 283.674 92.9626C283.674 105.015 271.123 114.779 255.648 114.779C253.195 114.783 250.748 114.53 248.347 114.022C246.422 113.628 244.537 113.056 242.717 112.315C241.381 111.777 240.086 111.142 238.843 110.415L225.731 116.008L227.766 111.836L230.175 106.894" stroke="#331D2C" stroke-width="1.294" stroke-linecap="round" stroke-linejoin="round"/>
<path d="M242.654 180.043L234.27 177.203L237.804 187.207C236.707 188.631 235.812 190.2 235.143 191.869C234.316 193.922 233.89 196.115 233.888 198.328C233.918 202.173 235.171 205.908 237.464 208.993C242.261 215.646 251.417 220.145 261.921 220.145C277.398 220.145 289.947 210.376 289.947 198.328C289.947 186.28 277.398 176.513 261.921 176.513C257.259 176.489 252.642 177.416 248.35 179.237C247.236 179.716 246.152 180.263 245.105 180.876L242.654 180.043Z" stroke="#331D2C" stroke-width="1.294" stroke-linecap="round" stroke-linejoin="round"/>
<path d="M78.9194 112.83V93.946C78.9194 91.6777 79.8205 89.5024 81.4244 87.8984C83.0284 86.2945 85.2037 85.3934 87.472 85.3934H229.353" stroke="#331D2C" stroke-width="1.294" stroke-linecap="round" stroke-linejoin="round"/>
<path d="M147.957 208.993H87.472C85.2037 208.993 83.0284 208.092 81.4244 206.488C79.8205 204.884 78.9194 202.709 78.9194 200.441V150.864" stroke="#331D2C" stroke-width="1.294" stroke-linecap="round" stroke-linejoin="round"/>
<path d="M237.461 208.993H227.192H179.314" stroke="#331D2C" stroke-width="1.294" stroke-linecap="round" stroke-linejoin="round"/>
<path d="M248.347 114.027V125.144V179.237" stroke="#331D2C" stroke-width="1.294" stroke-linecap="round" stroke-linejoin="round"/>
<path d="M84.55 116.086V95.8413C84.5504 94.16 85.2185 92.5476 86.4074 91.3587C87.5963 90.1698 89.2087 89.5017 90.89 89.5013H227.97" stroke="#331D2C" stroke-width="1.294" stroke-linecap="round" stroke-linejoin="round"/>
<path d="M235.143 191.869H90.89C89.2087 191.868 87.5963 191.2 86.4074 190.011C85.2185 188.823 84.5504 187.21 84.55 185.529V150.864" stroke="#331D2C" stroke-width="1.294" stroke-linecap="round" stroke-linejoin="round"/>
<path d="M242.717 112.321V114.866V179.853" stroke="#331D2C" stroke-width="1.294" stroke-linecap="round" stroke-linejoin="round"/>
<path d="M84.55 101.584H229.901" stroke="#331D2C" stroke-width="1.294" stroke-linecap="round" stroke-linejoin="round"/>
<path d="M228.234 97.9332H107.281V93.1027H227.583" stroke="#331D2C" stroke-width="1.294" stroke-linecap="round" stroke-linejoin="round"/>
<path d="M168.331 200.43C168.332 201.36 168.057 202.268 167.541 203.041C167.026 203.814 166.292 204.416 165.434 204.773C164.576 205.129 163.631 205.222 162.72 205.042C161.808 204.861 160.971 204.414 160.314 203.757C159.656 203.101 159.208 202.264 159.026 201.353C158.844 200.442 158.937 199.497 159.292 198.638C159.647 197.78 160.249 197.045 161.021 196.529C161.793 196.012 162.701 195.736 163.63 195.735C164.876 195.735 166.071 196.229 166.953 197.11C167.834 197.99 168.33 199.184 168.331 200.43Z" stroke="#331D2C" stroke-width="1.294" stroke-linecap="round" stroke-linejoin="round"/>
<path d="M143.131 230.263L147.953 208.993H179.314L182.1 221.292L184.136 230.263" stroke="#331D2C" stroke-width="1.294" stroke-linecap="round" stroke-linejoin="round"/>
<path d="M181.262 230.263H147.234" stroke="#331D2C" stroke-width="1.294" stroke-linecap="round" stroke-linejoin="round"/>
<path d="M147.953 208.993L182.1 221.292" stroke="#331D2C" stroke-width="1.294" stroke-linecap="round" stroke-linejoin="round"/>
<path d="M130.157 230.263H137.593" stroke="#331D2C" stroke-width="1.294" stroke-linecap="round" stroke-linejoin="round"/>
<path d="M139.801 230.263H143.131H147.234" stroke="#331D2C" stroke-width="1.294" stroke-linecap="round" stroke-linejoin="round"/>
<path d="M24.0934 230.263H31.5285" stroke="#331D2C" stroke-width="1.294" stroke-linecap="round" stroke-linejoin="round"/>
<path d="M60.5701 230.263H79.7389" stroke="#331D2C" stroke-width="1.294" stroke-linecap="round" stroke-linejoin="round"/>
<path d="M33.7367 230.263H43.7927" stroke="#331D2C" stroke-width="1.294" stroke-linecap="round" stroke-linejoin="round"/>
<path d="M181.261 230.263H184.136H188.695" stroke="#331D2C" stroke-width="1.294" stroke-linecap="round" stroke-linejoin="round"/>
<path d="M190.903 230.263H198.338" stroke="#331D2C" stroke-width="1.294" stroke-linecap="round" stroke-linejoin="round"/>
<path d="M97.972 98.4935L102.904 95.6491L97.972 92.7987" stroke="#331D2C" stroke-width="1.294" stroke-linecap="round" stroke-linejoin="round"/>
<path d="M94.7849 92.7987L89.8485 95.6491L94.7849 98.4935" stroke="#331D2C" stroke-width="1.294" stroke-linecap="round" stroke-linejoin="round"/>
<path d="M242.717 114.866L248.347 125.144" stroke="#331D2C" stroke-width="1.294" stroke-linecap="round" stroke-linejoin="round"/>
<path d="M231.989 191.869L227.192 208.993" stroke="#331D2C" stroke-width="1.294" stroke-linecap="round" stroke-linejoin="round"/>
<path d="M84.5501 152.403L78.9194 159.595" stroke="#331D2C" stroke-width="1.294" stroke-linecap="round" stroke-linejoin="round"/>
<path d="M60.5701 230.263H43.7927C41.1257 230.263 38.5679 229.204 36.682 227.318C34.7962 225.432 33.7367 222.874 33.7367 220.207V196.743H70.6261V220.207C70.6257 222.874 69.5661 225.432 67.6803 227.317C65.7946 229.203 63.237 230.263 60.5701 230.263Z" stroke="#331D2C" stroke-width="1.294" stroke-linecap="round" stroke-linejoin="round"/>
<path d="M46.3763 196.743C46.3252 191.568 45.791 186.409 44.7805 181.333C43.1803 173.373 39.9931 164.496 33.7366 159.594C33.4759 159.391 33.2196 159.189 32.9544 158.998C24.9311 153.225 16.1432 148.597 6.84363 145.248C6.84363 145.248 16.1487 165.116 25.0872 172.642C33.7366 179.931 42.3712 183.966 42.6215 196.743" stroke="#331D2C" stroke-width="1.294" stroke-linecap="round" stroke-linejoin="round"/>
<path d="M50.2384 183.248C48.2842 187.472 47.2569 192.065 47.2256 196.719" stroke="#331D2C" stroke-width="1.294" stroke-linecap="round" stroke-linejoin="round"/>
<path d="M53.2512 178.1C52.828 178.696 52.4227 179.31 52.0368 179.931C51.3758 181 50.7753 182.106 50.2384 183.243" stroke="#331D2C" stroke-width="1.294" stroke-linecap="round" stroke-linejoin="round"/>
<path d="M72.873 153.083C70.3817 158.733 67.211 164.34 63.4964 167.46C62.2905 168.472 61.1303 169.497 60.0157 170.535" stroke="#331D2C" stroke-width="1.294" stroke-linecap="round" stroke-linejoin="round"/>
<path d="M44.7805 181.333C45.2677 178.782 45.5255 175.89 45.8369 172.938C45.977 171.608 46.126 170.264 46.3093 168.938" stroke="#331D2C" stroke-width="1.294" stroke-linecap="round" stroke-linejoin="round"/>
<path d="M74.649 167.46C74.509 167.758 69.3312 178.721 64.368 182.911C63.2163 183.879 62.063 184.748 60.9738 185.593C59.8685 186.434 58.8229 187.35 57.8448 188.336C56.7651 189.399 55.911 190.669 55.3337 192.07C54.7564 193.471 54.4677 194.974 54.4849 196.489" stroke="#331D2C" stroke-width="1.294" stroke-linecap="round" stroke-linejoin="round"/>
<path d="M60.3048 174.917C64.7289 171.805 69.5497 169.3 74.6386 167.467" stroke="#331D2C" stroke-width="1.294" stroke-linecap="round" stroke-linejoin="round"/>
<path d="M52.3497 196.497C52.3768 193.899 52.619 191.307 53.0739 188.749C53.5077 186.111 54.2737 183.539 55.3536 181.093C56.2702 178.946 57.6832 177.048 59.4764 175.553C59.7506 175.342 60.0247 175.129 60.3048 174.926" stroke="#331D2C" stroke-width="1.294" stroke-linecap="round" stroke-linejoin="round"/>
<path d="M57.8269 188.344C58.4201 191.108 58.7815 193.918 58.9072 196.743" stroke="#331D2C" stroke-width="1.294" stroke-linecap="round" stroke-linejoin="round"/>
<path d="M38.2096 156.003C40.5784 160.514 43.2996 164.831 46.348 168.914C48.881 172.396 51.3469 175.53 53.2511 178.104C54.0706 179.208 54.7799 180.205 55.3535 181.093" stroke="#331D2C" stroke-width="1.294" stroke-linecap="round" stroke-linejoin="round"/>
<path d="M43.5945 117.937C40.4485 114.189 37.0567 110.655 33.4417 107.358C33.4417 107.358 26.61 130.546 37.1548 153.804C37.4766 154.518 37.8148 155.221 38.1709 155.93" stroke="#331D2C" stroke-width="1.294" stroke-linecap="round" stroke-linejoin="round"/>
<path d="M60.3048 174.926C60.2139 173.475 60.1126 172.01 60.0157 170.54C59.628 164.719 59.1924 158.901 58.709 153.087" stroke="#331D2C" stroke-width="1.294" stroke-linecap="round" stroke-linejoin="round"/>
<path d="M61.4909 196.497C61.4909 195.378 61.2882 191.194 60.9604 185.6" stroke="#331D2C" stroke-width="1.294" stroke-linecap="round" stroke-linejoin="round"/>
<path d="M38.2096 156.003L38.1708 155.936C37.6508 155.058 31.9382 145.604 25.0007 141.526C25.0007 141.526 26.8945 153.922 32.9544 159.002C33.2046 159.215 33.4657 159.414 33.7366 159.598C40.4178 164.217 44.9787 167.25 45.8369 172.943" stroke="#331D2C" stroke-width="1.294" stroke-linecap="round" stroke-linejoin="round"/>
<path d="M50.2384 183.243C50.219 185.895 50.9834 191.507 50.2384 196.492" stroke="#331D2C" stroke-width="1.294" stroke-linecap="round" stroke-linejoin="round"/>
<path d="M52.0369 179.931C52.0369 179.931 52.8281 184.641 53.0799 188.744" stroke="#331D2C" stroke-width="1.294" stroke-linecap="round" stroke-linejoin="round"/>
<path d="M100.437 105.03V186.564" stroke="#331D2C" stroke-width="1.294" stroke-linecap="round" stroke-linejoin="round"/>
<path d="M139.814 111.838H106.747C106.088 111.838 105.457 111.576 104.992 111.11C104.526 110.645 104.265 110.014 104.264 109.356C104.266 108.698 104.528 108.068 104.993 107.603C105.459 107.138 106.089 106.877 106.747 106.876H139.814C140.472 106.876 141.103 107.138 141.568 107.603C142.034 108.068 142.295 108.699 142.295 109.357C142.295 110.015 142.034 110.646 141.568 111.111C141.103 111.577 140.472 111.838 139.814 111.838Z" stroke="#331D2C" stroke-width="1.294" stroke-linecap="round" stroke-linejoin="round"/>
<path d="M230.166 106.896C230.095 106.896 230.037 106.876 229.97 106.876H153.512C152.854 106.876 152.223 107.138 151.758 107.603C151.292 108.068 151.031 108.699 151.031 109.357C151.031 110.015 151.292 110.646 151.758 111.111C152.223 111.577 152.854 111.838 153.512 111.838H227.757L230.166 106.896Z" stroke="#331D2C" stroke-width="1.294" stroke-linecap="round" stroke-linejoin="round"/>
<path d="M94.1398 109.356C94.1392 109.72 94.0306 110.077 93.8276 110.379C93.6246 110.682 93.3364 110.918 92.9994 111.058C92.6623 111.197 92.2916 111.233 91.934 111.162C91.5765 111.09 91.248 110.914 90.9903 110.656C90.7326 110.398 90.5571 110.07 90.486 109.712C90.4149 109.355 90.4514 108.984 90.5908 108.647C90.7303 108.31 90.9665 108.022 91.2696 107.819C91.5727 107.617 91.9291 107.508 92.2937 107.508C92.5364 107.508 92.7767 107.555 93.001 107.648C93.2252 107.741 93.429 107.877 93.6005 108.048C93.772 108.22 93.908 108.424 94.0005 108.648C94.0931 108.873 94.1404 109.113 94.1398 109.356Z" stroke="#331D2C" stroke-width="1.294" stroke-linecap="round" stroke-linejoin="round"/>
<path d="M159.099 122.444H106.747C106.416 122.452 106.087 122.394 105.779 122.273C105.471 122.152 105.19 121.97 104.953 121.739C104.716 121.508 104.528 121.232 104.4 120.927C104.271 120.622 104.205 120.295 104.205 119.964C104.205 119.633 104.271 119.305 104.4 119C104.528 118.695 104.716 118.419 104.953 118.188C105.19 117.957 105.471 117.776 105.779 117.655C106.087 117.534 106.416 117.475 106.747 117.484H159.099C159.43 117.475 159.759 117.534 160.067 117.655C160.375 117.776 160.656 117.957 160.893 118.188C161.129 118.419 161.318 118.695 161.446 119C161.575 119.305 161.641 119.633 161.641 119.964C161.641 120.295 161.575 120.622 161.446 120.927C161.318 121.232 161.129 121.508 160.893 121.739C160.656 121.97 160.375 122.152 160.067 122.273C159.759 122.394 159.43 122.452 159.099 122.444Z" stroke="#331D2C" stroke-width="1.294" stroke-linecap="round" stroke-linejoin="round"/>
<path d="M229.97 122.444H172.795C172.304 122.445 171.824 122.3 171.416 122.028C171.008 121.755 170.689 121.368 170.501 120.914C170.314 120.461 170.265 119.962 170.361 119.48C170.457 118.999 170.694 118.557 171.042 118.211C171.271 117.979 171.544 117.795 171.845 117.671C172.146 117.546 172.469 117.482 172.795 117.484H229.97C230.3 117.475 230.63 117.534 230.938 117.655C231.246 117.776 231.526 117.957 231.763 118.188C232 118.419 232.188 118.695 232.317 119C232.445 119.305 232.511 119.633 232.511 119.964C232.511 120.295 232.445 120.622 232.317 120.927C232.188 121.232 232 121.508 231.763 121.739C231.526 121.97 231.246 122.152 230.938 122.273C230.63 122.394 230.3 122.452 229.97 122.444Z" stroke="#331D2C" stroke-width="1.294" stroke-linecap="round" stroke-linejoin="round"/>
<path d="M94.1398 119.961C94.1395 120.326 94.0311 120.683 93.8283 120.986C93.6255 121.289 93.3374 121.525 93.0004 121.664C92.6634 121.804 92.2926 121.84 91.935 121.769C91.5773 121.698 91.2487 121.522 90.9908 121.264C90.733 121.006 90.5573 120.678 90.4861 120.32C90.4149 119.963 90.4513 119.592 90.5907 119.255C90.7301 118.918 90.9663 118.63 91.2694 118.427C91.5726 118.224 91.929 118.116 92.2937 118.115C92.5362 118.115 92.7765 118.162 93.0006 118.255C93.2248 118.348 93.4285 118.484 93.6 118.655C93.7715 118.827 93.9074 119.03 94.0001 119.255C94.0927 119.479 94.1402 119.719 94.1398 119.961Z" stroke="#331D2C" stroke-width="1.294" stroke-linecap="round" stroke-linejoin="round"/>
<path d="M130.172 133.057H106.747C106.088 133.056 105.457 132.794 104.992 132.329C104.526 131.863 104.265 131.232 104.264 130.573C104.266 129.916 104.529 129.286 104.994 128.822C105.459 128.357 106.089 128.096 106.747 128.095H130.172C130.83 128.095 131.461 128.357 131.927 128.822C132.392 129.287 132.653 129.918 132.653 130.576C132.653 131.234 132.392 131.865 131.927 132.33C131.461 132.796 130.83 133.057 130.172 133.057Z" stroke="#331D2C" stroke-width="1.294" stroke-linecap="round" stroke-linejoin="round"/>
<path d="M229.97 133.057H143.868C143.21 133.056 142.579 132.794 142.114 132.328C141.649 131.863 141.387 131.231 141.386 130.573C141.389 129.916 141.651 129.287 142.116 128.823C142.582 128.358 143.211 128.097 143.868 128.095H229.97C230.628 128.095 231.259 128.357 231.724 128.822C232.189 129.287 232.45 129.918 232.45 130.576C232.45 131.234 232.189 131.865 231.724 132.33C231.259 132.796 230.628 133.057 229.97 133.057Z" stroke="#331D2C" stroke-width="1.294" stroke-linecap="round" stroke-linejoin="round"/>
<path d="M93.2144 131.85C93.2144 131.956 93.2144 132.062 93.204 132.163C93.5079 131.992 93.7566 131.737 93.9207 131.429C94.0848 131.121 94.1575 130.773 94.1302 130.425C94.103 130.077 93.9769 129.744 93.7669 129.466C93.5569 129.187 93.2717 128.974 92.9448 128.852H92.9343C93.0662 129.582 93.1518 130.32 93.1906 131.06V131.12C93.2085 131.358 93.2144 131.604 93.2144 131.85Z" stroke="#331D2C" stroke-width="1.294" stroke-linecap="round" stroke-linejoin="round"/>
<path d="M188.026 143.657H106.747C106.088 143.656 105.457 143.395 104.992 142.929C104.526 142.464 104.265 141.833 104.264 141.175C104.265 140.517 104.528 139.887 104.993 139.422C105.458 138.958 106.089 138.697 106.747 138.697H188.026C188.673 138.713 189.289 138.981 189.741 139.444C190.193 139.908 190.446 140.529 190.446 141.177C190.446 141.824 190.193 142.446 189.741 142.909C189.289 143.373 188.673 143.641 188.026 143.657Z" stroke="#331D2C" stroke-width="1.294" stroke-linecap="round" stroke-linejoin="round"/>
<path d="M229.97 143.657H201.722C201.064 143.656 200.433 143.395 199.967 142.929C199.502 142.464 199.24 141.833 199.24 141.175C199.241 140.517 199.503 139.887 199.968 139.422C200.434 138.958 201.065 138.697 201.722 138.697H229.97C230.3 138.689 230.63 138.747 230.938 138.868C231.246 138.989 231.526 139.17 231.763 139.401C232 139.632 232.188 139.908 232.317 140.213C232.445 140.518 232.511 140.846 232.511 141.177C232.511 141.508 232.445 141.835 232.317 142.14C232.188 142.445 232 142.721 231.763 142.952C231.526 143.183 231.246 143.365 230.938 143.486C230.63 143.607 230.3 143.665 229.97 143.657Z" stroke="#331D2C" stroke-width="1.294" stroke-linecap="round" stroke-linejoin="round"/>
<path d="M91.5501 139.464C91.6991 139.315 92.167 139.325 92.2951 139.325C92.7847 139.325 93.2543 139.52 93.6005 139.866C93.9467 140.212 94.1412 140.682 94.1412 141.172C94.1412 141.661 93.9467 142.131 93.6005 142.477C93.2543 142.823 92.7847 143.018 92.2951 143.018C91.9015 143.008 91.5209 142.875 91.2074 142.637C90.8939 142.399 90.6634 142.068 90.5488 141.692" stroke="#331D2C" stroke-width="1.294" stroke-linecap="round" stroke-linejoin="round"/>
<path d="M125.351 154.264H106.747C106.088 154.263 105.457 154.001 104.992 153.536C104.526 153.07 104.265 152.439 104.264 151.78C104.266 151.123 104.529 150.493 104.994 150.029C105.459 149.564 106.089 149.303 106.747 149.302H125.351C126.009 149.302 126.64 149.564 127.105 150.029C127.57 150.494 127.832 151.125 127.832 151.783C127.832 152.441 127.57 153.072 127.105 153.538C126.64 154.003 126.009 154.264 125.351 154.264Z" stroke="#331D2C" stroke-width="1.294" stroke-linecap="round" stroke-linejoin="round"/>
<path d="M229.97 154.264H139.048C138.39 154.263 137.758 154.001 137.293 153.536C136.827 153.07 136.565 152.439 136.564 151.78C136.567 151.123 136.83 150.493 137.295 150.029C137.761 149.565 138.391 149.304 139.048 149.302H229.97C230.628 149.302 231.259 149.564 231.724 150.029C232.189 150.494 232.45 151.125 232.45 151.783C232.45 152.441 232.189 153.072 231.724 153.538C231.259 154.003 230.628 154.264 229.97 154.264Z" stroke="#331D2C" stroke-width="1.294" stroke-linecap="round" stroke-linejoin="round"/>
<path d="M168.741 164.87H106.747C106.088 164.87 105.457 164.608 104.992 164.143C104.526 163.677 104.265 163.046 104.264 162.388C104.265 161.73 104.528 161.1 104.993 160.635C105.458 160.171 106.089 159.91 106.747 159.91H168.741C169.388 159.926 170.004 160.194 170.456 160.657C170.908 161.121 171.161 161.742 171.161 162.39C171.161 163.037 170.908 163.659 170.456 164.122C170.004 164.586 169.388 164.854 168.741 164.87Z" stroke="#331D2C" stroke-width="1.294" stroke-linecap="round" stroke-linejoin="round"/>
<path d="M229.97 164.87H182.439C181.78 164.87 181.149 164.608 180.683 164.143C180.218 163.677 179.956 163.046 179.955 162.388C179.957 161.73 180.219 161.1 180.685 160.636C181.15 160.171 181.781 159.91 182.439 159.91H229.97C230.617 159.926 231.232 160.194 231.684 160.657C232.137 161.121 232.39 161.742 232.39 162.39C232.39 163.037 232.137 163.659 231.684 164.122C231.232 164.586 230.617 164.854 229.97 164.87Z" stroke="#331D2C" stroke-width="1.294" stroke-linecap="round" stroke-linejoin="round"/>
<path d="M94.1398 162.388C94.1392 162.752 94.0306 163.109 93.8276 163.411C93.6246 163.714 93.3364 163.95 92.9994 164.09C92.6623 164.229 92.2916 164.265 91.934 164.194C91.5765 164.122 91.248 163.946 90.9903 163.688C90.7326 163.431 90.5571 163.102 90.486 162.744C90.4149 162.387 90.4514 162.016 90.5908 161.679C90.7303 161.342 90.9665 161.054 91.2696 160.851C91.5727 160.649 91.9291 160.54 92.2937 160.54C92.5364 160.54 92.7767 160.587 93.001 160.68C93.2252 160.773 93.429 160.909 93.6005 161.08C93.772 161.252 93.908 161.456 94.0005 161.68C94.0931 161.905 94.1404 162.145 94.1398 162.388Z" stroke="#331D2C" stroke-width="1.294" stroke-linecap="round" stroke-linejoin="round"/>
<path d="M202.491 175.476H106.747C106.088 175.475 105.457 175.214 104.992 174.748C104.526 174.283 104.265 173.652 104.264 172.993C104.266 172.336 104.529 171.706 104.994 171.242C105.459 170.778 106.089 170.516 106.747 170.516H202.491C203.138 170.531 203.754 170.8 204.206 171.263C204.658 171.727 204.911 172.348 204.911 172.996C204.911 173.643 204.658 174.265 204.206 174.728C203.754 175.192 203.138 175.46 202.491 175.476Z" stroke="#331D2C" stroke-width="1.294" stroke-linecap="round" stroke-linejoin="round"/>
<path d="M229.97 175.476H216.186C215.527 175.475 214.896 175.214 214.431 174.748C213.965 174.283 213.704 173.652 213.703 172.993C213.705 172.336 213.968 171.706 214.433 171.242C214.898 170.778 215.528 170.516 216.186 170.516H229.97C230.3 170.508 230.63 170.566 230.938 170.687C231.246 170.808 231.526 170.989 231.763 171.22C232 171.451 232.188 171.727 232.317 172.032C232.445 172.337 232.511 172.665 232.511 172.996C232.511 173.327 232.445 173.654 232.317 173.959C232.188 174.264 232 174.54 231.763 174.771C231.526 175.002 231.246 175.184 230.938 175.305C230.63 175.426 230.3 175.484 229.97 175.476Z" stroke="#331D2C" stroke-width="1.294" stroke-linecap="round" stroke-linejoin="round"/>
<path d="M94.1398 172.989C94.1395 173.354 94.0311 173.71 93.8283 174.013C93.6255 174.316 93.3374 174.553 93.0004 174.692C92.6634 174.831 92.2926 174.868 91.935 174.797C91.5773 174.725 91.2487 174.55 90.9908 174.292C90.733 174.034 90.5573 173.705 90.4861 173.348C90.4149 172.99 90.4513 172.619 90.5907 172.282C90.7301 171.945 90.9663 171.657 91.2694 171.454C91.5726 171.252 91.929 171.143 92.2937 171.143C92.5362 171.143 92.7765 171.19 93.0006 171.283C93.2248 171.375 93.4285 171.511 93.6 171.683C93.7715 171.854 93.9074 172.058 94.0001 172.282C94.0927 172.506 94.1402 172.747 94.1398 172.989Z" stroke="#331D2C" stroke-width="1.294" stroke-linecap="round" stroke-linejoin="round"/>
<path d="M139.814 186.083H106.747C106.088 186.082 105.457 185.82 104.992 185.355C104.526 184.889 104.265 184.258 104.264 183.599C104.266 182.942 104.529 182.312 104.994 181.848C105.459 181.383 106.089 181.122 106.747 181.121H139.814C140.472 181.121 141.103 181.383 141.568 181.848C142.034 182.313 142.295 182.944 142.295 183.602C142.295 184.26 142.034 184.891 141.568 185.357C141.103 185.822 140.472 186.083 139.814 186.083Z" stroke="#331D2C" stroke-width="1.294" stroke-linecap="round" stroke-linejoin="round"/>
<path d="M229.97 186.083H153.512C152.853 186.082 152.222 185.82 151.756 185.355C151.291 184.889 151.029 184.258 151.028 183.599C151.031 182.942 151.293 182.312 151.759 181.848C152.224 181.384 152.854 181.123 153.512 181.121H229.97C230.628 181.121 231.259 181.383 231.724 181.848C232.189 182.313 232.451 182.944 232.451 183.602C232.451 184.26 232.189 184.891 231.724 185.357C231.259 185.822 230.628 186.083 229.97 186.083Z" stroke="#331D2C" stroke-width="1.294" stroke-linecap="round" stroke-linejoin="round"/>
<path d="M94.1398 183.599C94.1395 183.964 94.0311 184.32 93.8283 184.624C93.6255 184.927 93.3374 185.163 93.0004 185.302C92.6634 185.442 92.2926 185.478 91.935 185.407C91.5773 185.336 91.2487 185.16 90.9908 184.902C90.733 184.644 90.5573 184.316 90.4861 183.958C90.4149 183.6 90.4513 183.23 90.5907 182.893C90.7301 182.556 90.9663 182.267 91.2694 182.065C91.5726 181.862 91.929 181.753 92.2937 181.753C92.5362 181.753 92.7763 181.801 93.0004 181.893C93.2245 181.986 93.4281 182.122 93.5995 182.293C93.771 182.465 93.907 182.668 93.9997 182.893C94.0924 183.117 94.14 183.357 94.1398 183.599Z" stroke="#331D2C" stroke-width="1.294" stroke-linecap="round" stroke-linejoin="round"/>
<path d="M59.1621 131.734H58.9892H58.8104C57.0205 131.643 55.337 130.855 54.1192 129.541C52.9013 128.226 52.2453 126.487 52.2912 124.695C52.3371 122.903 53.0811 121.201 54.3647 119.95C55.6483 118.699 57.3698 117.999 59.1621 117.999" stroke="#331D2C" stroke-width="1.942" stroke-linecap="round" stroke-linejoin="round"/>
<path d="M49.4039 131.725H59.1619H58.9891C57.1871 131.778 55.4779 132.536 54.23 133.837C52.9822 135.138 52.2956 136.878 52.3182 138.68C52.3409 140.483 53.071 142.205 54.3512 143.474C55.6315 144.743 57.3592 145.459 59.1619 145.466" stroke="#331D2C" stroke-width="1.942" stroke-linecap="round" stroke-linejoin="round"/>
<path d="M71.4991 131.734H71.6779H71.8508C73.6407 131.643 75.3242 130.855 76.542 129.541C77.7599 128.226 78.4159 126.487 78.37 124.695C78.3241 122.903 77.5801 121.201 76.2965 119.95C75.0129 118.699 73.2914 117.999 71.4991 117.999" stroke="#331D2C" stroke-width="1.942" stroke-linecap="round" stroke-linejoin="round"/>
<path d="M81.2572 131.725H71.4991H71.6779C73.4804 131.778 75.1898 132.537 76.4376 133.839C77.6854 135.14 78.3716 136.88 78.3481 138.683C78.3247 140.486 77.5935 142.208 76.3122 143.477C75.0309 144.746 73.3023 145.46 71.4991 145.466" stroke="#331D2C" stroke-width="1.942" stroke-linecap="round" stroke-linejoin="round"/>
<path d="M261.567 101L274.665 93.4409L261.567 85.8762" stroke="#331D2C" stroke-width="1.942" stroke-linecap="round" stroke-linejoin="round"/>
<path d="M248.121 85.8762L235.022 93.4409L248.121 101" stroke="#331D2C" stroke-width="1.942" stroke-linecap="round" stroke-linejoin="round"/>
<path d="M258.573 82.4581L250.743 104.312" stroke="#331D2C" stroke-width="1.294" stroke-linecap="round" stroke-linejoin="round"/>
<path d="M246.978 207.325L249.1 200.883L254.133 185.6L259.171 200.883L261.292 207.325" stroke="#331D2C" stroke-width="1.942" stroke-linecap="round" stroke-linejoin="round"/>
<path d="M249.1 200.883H259.171" stroke="#331D2C" stroke-width="1.942" stroke-linecap="round" stroke-linejoin="round"/>
<path d="M272.192 203.574C270.809 206.539 268.219 208.26 266.416 207.421C264.614 206.583 264.277 203.492 265.66 200.523C267.042 197.553 269.627 195.837 271.435 196.676C271.99 197.017 272.437 197.51 272.722 198.096C273.008 198.683 273.12 199.338 273.045 199.986C273.023 201.23 272.732 202.454 272.192 203.574Z" stroke="#331D2C" stroke-width="1.294" stroke-linecap="round" stroke-linejoin="round"/>
<path d="M273.041 199.943V199.986C273.306 202.595 271.711 209.466 275.872 206.669" stroke="#331D2C" stroke-width="1.294" stroke-linecap="round" stroke-linejoin="round"/>
</svg>
