<svg width="65" height="89" viewBox="0 0 65 89" fill="none" xmlns="http://www.w3.org/2000/svg">
<path d="M27.7484 10.2191C31.8521 12.8913 33.6177 11.4121 33.1882 5.73371C32.8065 0.86651 28.989 -1.94893 27.653 1.58218C26.4123 4.77926 26.5077 9.40793 27.7484 10.2191Z" fill="#331D2C"/>
<path d="M16.6297 14.3709C18.6339 15.4684 25.0281 15.6116 26.3642 14.6572C29.2749 12.5577 20.0177 9.78998 15.7708 11.5078C14.2439 12.0804 14.6256 13.2734 16.6297 14.3709Z" fill="#331D2C"/>
<path d="M26.4125 17.1862C23.5495 21.8147 28.6075 29.9744 31.9001 26.0138C32.8544 24.8686 32.3291 19.2857 31.1361 18.0927C29.9432 16.9475 26.9374 16.3272 26.4125 17.1862Z" fill="#331D2C"/>
<path d="M40.9187 15.23C46.2631 14.5143 46.7402 14.3712 46.7402 13.3691C46.7402 11.2218 41.0141 10.3151 36.0992 11.6034C29.9436 13.3213 33.8087 16.1844 40.9187 15.23Z" fill="#331D2C"/>
<path d="M29.2753 70.9161C26.8417 69.7709 18.5388 69.8186 18.5388 71.0115C18.5388 72.5862 21.3064 73.6837 25.7919 73.9223C31.4703 74.1609 33.1404 72.7294 29.2753 70.9161Z" fill="#331D2C"/>
<path d="M58.765 19.5245C52.4663 22.1489 45.2609 28.3045 36.0991 32.5991C28.846 35.9871 24.5514 35.8439 19.6365 33.124C13.815 29.9746 10.761 30.595 13.5764 34.3647C17.7755 39.9954 17.012 47.0099 11.6199 51.9725C6.99108 56.2194 12.0966 58.8438 19.2066 55.8853C23.9306 53.9289 24.456 53.9766 30.2776 57.0306C37.3398 60.7526 38.819 60.5617 39.0576 56.0762C39.2485 51.5908 40.6323 47.0099 42.6842 44.0514C45.8812 39.3273 57.5244 27.1593 61.3895 24.4871C66.6384 20.8606 66.4953 16.3274 58.765 19.5245ZM35.2879 40.6634C33.2838 43.6696 32.2817 46.5327 32.0431 49.7298C31.6614 55.1696 31.8522 52.1157 23.9311 50.4932C21.2589 49.9684 20.9726 49.7775 21.2112 48.9186C22.595 44.0991 22.595 42.1427 21.1635 38.373C20.9726 37.8958 21.7361 37.9912 23.9311 38.707C25.6012 39.2319 28.1303 39.709 29.5618 39.7568C32.568 39.8522 34.763 39.375 36.3377 39.0887L35.2879 40.6634Z" fill="#331D2C"/>
<path d="M18.4904 69.5326C19.6356 66.4309 19.5884 63.9973 18.3477 62.7567C16.8685 61.2774 14.0531 61.0865 13.3373 62.3749C12.7647 63.4247 13.0988 64.7131 13.1942 67.1467C13.3374 70.2006 17.536 72.1093 18.4904 69.5326Z" fill="#331D2C"/>
<path d="M13.5759 76.7859C12.6215 78.3128 13.0982 85.9954 14.1958 86.902C17.7269 89.7651 19.6838 87.1883 18.5863 81.0805C17.8705 77.1676 14.912 74.6386 13.5759 76.7859Z" fill="#331D2C"/>
<path d="M1.02628 69.9619C-0.30982 70.2482 -0.357588 71.1548 0.978508 72.3001C2.41004 73.5884 11.2857 73.9702 11.7152 72.7295C12.5741 70.5345 6.17979 68.8644 1.02628 69.9619Z" fill="#331D2C"/>
</svg>
