<svg width="244" height="244" viewBox="0 0 244 244" fill="none" xmlns="http://www.w3.org/2000/svg">
<path d="M35.3591 159.94H57.845V170.094H35.3591V159.94Z" fill="#331D2C"/>
<path d="M35.3591 174.597H57.845V184.751H35.3591V174.597Z" fill="#331D2C"/>
<path d="M35.3591 189.254H57.845V217.301H35.3591V189.254Z" fill="#331D2C"/>
<path d="M198.804 47.8472C200.101 47.8472 201.37 48.232 202.449 48.9529C203.528 49.6739 204.369 50.6986 204.866 51.8975C205.362 53.0964 205.492 54.4156 205.239 55.6883C204.986 56.9611 204.361 58.1302 203.443 59.0478C202.526 59.9654 201.357 60.5903 200.084 60.8434C198.811 61.0966 197.492 60.9666 196.293 60.47C195.094 59.9734 194.069 59.1325 193.348 58.0535C192.627 56.9745 192.243 55.706 192.243 54.4083C192.243 52.6684 192.935 50.9999 194.165 49.7696C195.395 48.5393 197.064 47.8478 198.804 47.8472Z" fill="#331D2C"/>
<path d="M198.804 78.6265C200.102 78.626 201.371 79.0105 202.451 79.7313C203.53 80.4521 204.372 81.4769 204.869 82.676C205.367 83.8752 205.497 85.1949 205.244 86.4682C204.991 87.7415 204.367 88.9112 203.449 89.8295C202.532 90.7478 201.362 91.3733 200.089 91.6271C198.816 91.8808 197.496 91.7513 196.297 91.255C195.097 90.7586 194.072 89.9178 193.35 88.8386C192.629 87.7595 192.243 86.4907 192.243 85.1925C192.242 83.4518 192.933 81.7823 194.164 80.551C195.394 79.3197 197.063 78.6274 198.804 78.6265Z" fill="#331D2C"/>
<path d="M15.3132 61.7893C15.3132 63.4278 15.636 65.0503 16.263 66.564C16.89 68.0778 17.8091 69.4533 18.9676 70.6118C20.1262 71.7704 21.5017 72.6895 23.0155 73.3165C24.5292 73.9435 26.1517 74.2663 27.7902 74.2663C29.4287 74.2663 31.0511 73.9435 32.5649 73.3165C34.0787 72.6895 35.4541 71.7704 36.6127 70.6118C37.7713 69.4533 38.6903 68.0778 39.3174 66.564C39.9444 65.0503 40.2671 63.4278 40.2671 61.7893C40.2671 60.1508 39.9444 58.5284 39.3174 57.0146C38.6903 55.5008 37.7713 54.1254 36.6127 52.9668C35.4541 51.8082 34.0787 50.8892 32.5649 50.2621C31.0511 49.6351 29.4287 49.3124 27.7902 49.3124C26.1517 49.3124 24.5292 49.6351 23.0155 50.2621C21.5017 50.8892 20.1262 51.8082 18.9676 52.9668C17.8091 54.1254 16.89 55.5008 16.263 57.0146C15.636 58.5284 15.3132 60.1508 15.3132 61.7893Z" fill="#331D2C"/>
<path d="M140.165 36.0485C140.165 36.6445 140.401 37.2161 140.823 37.6375C141.244 38.059 141.816 38.2957 142.412 38.2957C143.008 38.2957 143.579 38.059 144.001 37.6375C144.422 37.2161 144.659 36.6445 144.659 36.0485C144.659 35.4525 144.422 34.8809 144.001 34.4595C143.579 34.038 143.008 33.8013 142.412 33.8013C141.816 33.8013 141.244 34.038 140.823 34.4595C140.401 34.8809 140.165 35.4525 140.165 36.0485Z" fill="#331D2C"/>
<path d="M53.958 47.8471C53.958 48.1422 54.0161 48.4344 54.1291 48.7071C54.242 48.9797 54.4075 49.2275 54.6162 49.4361C54.8249 49.6448 55.0726 49.8103 55.3453 49.9233C55.6179 50.0362 55.9101 50.0943 56.2052 50.0943C56.5004 50.0943 56.7926 50.0362 57.0652 49.9233C57.3379 49.8103 57.5856 49.6448 57.7943 49.4361C58.003 49.2275 58.1685 48.9797 58.2814 48.7071C58.3944 48.4344 58.4525 48.1422 58.4525 47.8471C58.4525 47.552 58.3944 47.2598 58.2814 46.9871C58.1685 46.7145 58.003 46.4667 57.7943 46.2581C57.5856 46.0494 57.3379 45.8838 57.0652 45.7709C56.7926 45.658 56.5004 45.5999 56.2052 45.5999C55.9101 45.5999 55.6179 45.658 55.3453 45.7709C55.0726 45.8838 54.8249 46.0494 54.6162 46.2581C54.4075 46.4667 54.242 46.7145 54.1291 46.9871C54.0161 47.2598 53.958 47.552 53.958 47.8471Z" fill="#331D2C"/>
<path d="M38.796 134.171C39.677 134.171 40.5382 134.432 41.2706 134.922C42.003 135.412 42.5737 136.108 42.9105 136.922C43.2474 137.736 43.3353 138.631 43.1631 139.495C42.9909 140.36 42.5663 141.153 41.9431 141.776C41.3199 142.398 40.526 142.822 39.6618 142.994C38.7977 143.165 37.9021 143.077 37.0883 142.739C36.2745 142.402 35.5791 141.83 35.09 141.098C34.6009 140.365 34.3401 139.503 34.3406 138.622C34.3404 138.037 34.4556 137.458 34.6795 136.918C34.9034 136.377 35.2316 135.886 35.6454 135.473C36.0592 135.059 36.5505 134.732 37.0911 134.508C37.6317 134.285 38.211 134.17 38.796 134.171Z" fill="#FFC077"/>
<path d="M185.805 26.2434C185.805 27.4251 186.274 28.5583 187.11 29.3939C187.945 30.2294 189.078 30.6988 190.26 30.6988C191.442 30.6988 192.575 30.2294 193.411 29.3939C194.246 28.5583 194.716 27.4251 194.716 26.2434C194.716 25.0617 194.246 23.9285 193.411 23.0929C192.575 22.2574 191.442 21.788 190.26 21.788C189.078 21.788 187.945 22.2574 187.11 23.0929C186.274 23.9285 185.805 25.0617 185.805 26.2434Z" fill="#FFC077"/>
<path d="M105.241 7.12964C106.122 7.12892 106.984 7.38949 107.717 7.8784C108.45 8.36731 109.021 9.06262 109.359 9.87639C109.697 10.6902 109.786 11.5859 109.615 12.4503C109.444 13.3146 109.02 14.1089 108.398 14.7325C107.776 15.3562 106.982 15.7813 106.118 15.954C105.254 16.1268 104.358 16.0395 103.544 15.7031C102.729 15.3668 102.033 14.7964 101.543 14.0643C101.052 13.3322 100.79 12.4711 100.789 11.59C100.788 11.0046 100.902 10.4248 101.125 9.88372C101.349 9.34261 101.676 8.85085 102.09 8.43655C102.503 8.02226 102.995 7.69358 103.535 7.46933C104.076 7.24507 104.656 7.12964 105.241 7.12964Z" fill="#FFC077"/>
<path d="M14.7913 26.2434C14.7913 27.4251 15.2607 28.5583 16.0962 29.3939C16.9318 30.2294 18.065 30.6988 19.2467 30.6988C20.4284 30.6988 21.5616 30.2294 22.3972 29.3939C23.2327 28.5583 23.7021 27.4251 23.7021 26.2434C23.7021 25.0617 23.2327 23.9285 22.3972 23.0929C21.5616 22.2574 20.4284 21.788 19.2467 21.788C18.065 21.788 16.9318 22.2574 16.0962 23.0929C15.2607 23.9285 14.7913 25.0617 14.7913 26.2434Z" fill="#FFC077"/>
<path d="M176.921 143.638L171.397 144.458C170.18 144.46 169.008 144.004 168.113 143.181C167.217 142.358 166.664 141.228 166.564 140.016V139.96C166.356 138.781 166.58 137.566 167.195 136.539C167.81 135.512 168.775 134.742 169.913 134.37L175.403 133.555C175.069 133.658 172.102 134.653 172.818 139.411C172.909 140.48 173.367 141.486 174.115 142.256C174.863 143.027 175.854 143.515 176.921 143.638Z" fill="#69D6F9"/>
<path d="M215.227 43.0855V110.43C215.227 110.844 215.062 111.242 214.769 111.535C214.475 111.828 214.078 111.993 213.663 111.994H183.948C183.533 111.993 183.136 111.828 182.843 111.535C182.55 111.241 182.385 110.844 182.385 110.43V43.0855C182.386 42.6711 182.55 42.2739 182.843 41.9807C183.136 41.6876 183.533 41.5225 183.948 41.5215H213.663C214.078 41.5225 214.475 41.6875 214.768 41.9807C215.061 42.2738 215.226 42.671 215.227 43.0855ZM205.369 54.412C205.369 53.1138 204.985 51.8446 204.264 50.7649C203.543 49.6853 202.518 48.8436 201.319 48.3464C200.12 47.8492 198.8 47.7188 197.526 47.9717C196.253 48.2246 195.083 48.8494 194.165 49.7671C193.247 50.6848 192.621 51.8542 192.368 53.1274C192.114 54.4006 192.244 55.7204 192.74 56.9199C193.237 58.1194 194.078 59.1448 195.157 59.8662C196.237 60.5877 197.506 60.9729 198.804 60.9732C200.544 60.9735 202.214 60.2824 203.445 59.052C204.676 57.8216 205.368 56.1526 205.369 54.412ZM205.369 85.1963C205.369 83.8981 204.985 82.6289 204.264 81.5492C203.543 80.4695 202.518 79.6279 201.319 79.1307C200.12 78.6335 198.8 78.5031 197.526 78.756C196.253 79.0088 195.083 79.6336 194.165 80.5514C193.247 81.4691 192.621 82.6385 192.368 83.9117C192.114 85.1849 192.244 86.5047 192.74 87.7042C193.237 88.9037 194.078 89.929 195.157 90.6505C196.237 91.372 197.506 91.7572 198.804 91.7574C200.545 91.7574 202.215 91.0658 203.446 89.8346C204.677 88.6035 205.369 86.9337 205.369 85.1926V85.1963Z" fill="#69D6F9"/>
<path d="M63.7548 155.469V222.807C63.7544 223.222 63.5897 223.619 63.2967 223.912C63.0038 224.206 62.6064 224.371 62.1919 224.371H32.4764C32.0618 224.371 31.6643 224.206 31.3712 223.913C31.078 223.619 30.913 223.222 30.9124 222.807V155.469C30.9124 155.055 31.0771 154.657 31.3705 154.363C31.6638 154.07 32.0616 153.905 32.4764 153.905H62.1919C62.3973 153.905 62.6006 153.946 62.7903 154.024C62.98 154.103 63.1523 154.218 63.2974 154.364C63.4426 154.509 63.5577 154.681 63.6361 154.871C63.7146 155.061 63.7549 155.264 63.7548 155.469ZM57.8439 217.301V189.254H35.3593V217.301H57.8439ZM57.8439 184.752V174.597H35.3593V184.752H57.8439ZM57.8439 170.094V159.942H35.3593V170.096L57.8439 170.094Z" fill="#69D6F9"/>
<path d="M130.208 28.426V95.77C130.208 96.1853 130.044 96.5838 129.751 96.878C129.457 97.1722 129.059 97.3379 128.644 97.3389H98.9285C98.5134 97.3376 98.1157 97.1717 97.8227 96.8776C97.5298 96.5835 97.3654 96.1851 97.3657 95.77V28.426C97.366 28.0115 97.5308 27.614 97.8237 27.3208C98.1167 27.0276 98.514 26.8626 98.9285 26.8619H128.644C129.059 26.8623 129.456 27.0271 129.75 27.3204C130.043 27.6136 130.208 28.0113 130.208 28.426Z" fill="#69D6F9"/>
<path d="M44.214 43.0855V110.43C44.214 110.635 44.1734 110.839 44.0945 111.03C44.0156 111.22 43.9 111.393 43.7543 111.538C43.6086 111.684 43.4356 111.799 43.2453 111.877C43.0549 111.956 42.851 111.996 42.6451 111.996H12.932C12.7266 111.996 12.5233 111.956 12.3336 111.877C12.1439 111.798 11.9716 111.683 11.8265 111.538C11.6813 111.393 11.5662 111.22 11.4878 111.03C11.4093 110.841 11.369 110.637 11.3691 110.432V43.088C11.3687 42.8824 11.4087 42.6788 11.4871 42.4888C11.5654 42.2987 11.6804 42.126 11.8256 41.9805C11.9708 41.835 12.1432 41.7196 12.3331 41.6408C12.5229 41.562 12.7264 41.5215 12.932 41.5215H42.6451C43.0604 41.5212 43.4589 41.6857 43.7531 41.9789C44.0473 42.2722 44.213 42.6702 44.214 43.0855ZM40.2673 61.7893C40.2675 59.3216 39.536 56.9092 38.1651 54.8572C36.7943 52.8052 34.8457 51.2058 32.5659 50.2613C30.2861 49.3167 27.7773 49.0695 25.357 49.5508C22.9366 50.0321 20.7133 51.2203 18.9682 52.9652C17.2232 54.71 16.0348 56.9332 15.5532 59.3535C15.0717 61.7739 15.3187 64.2826 16.263 66.5626C17.2074 68.8425 18.8066 70.7912 20.8584 72.1622C22.9102 73.5333 25.3226 74.2651 27.7903 74.2651C31.0992 74.2651 34.2726 72.9507 36.6124 70.6111C38.9523 68.2715 40.267 65.0982 40.2673 61.7893Z" fill="#69D6F9"/>
<path d="M171.726 44.5507C172.171 44.5499 172.607 44.6814 172.977 44.9283C173.348 45.1752 173.637 45.5265 173.807 45.9377C173.978 46.349 174.023 46.8016 173.936 47.2383C173.85 47.6751 173.635 48.0763 173.32 48.3911C173.006 48.7059 172.604 48.9203 172.168 49.007C171.731 49.0937 171.278 49.0488 170.867 48.8781C170.456 48.7073 170.105 48.4184 169.858 48.0479C169.611 47.6774 169.479 47.2419 169.48 46.7967C169.48 46.2011 169.717 45.63 170.138 45.2089C170.559 44.7877 171.13 44.551 171.726 44.5507Z" fill="#331D2C"/>
<path d="M169.479 66.3436C169.479 66.9396 169.716 67.5112 170.137 67.9326C170.558 68.354 171.13 68.5908 171.726 68.5908C172.322 68.5908 172.894 68.354 173.315 67.9326C173.736 67.5112 173.973 66.9396 173.973 66.3436C173.973 65.7476 173.736 65.176 173.315 64.7545C172.894 64.3331 172.322 64.0963 171.726 64.0963C171.13 64.0963 170.558 64.3331 170.137 64.7545C169.716 65.176 169.479 65.7476 169.479 66.3436Z" fill="#331D2C"/>
<path d="M169.479 76.117C169.479 76.713 169.716 77.2846 170.137 77.706C170.558 78.1275 171.13 78.3642 171.726 78.3642C172.322 78.3642 172.894 78.1275 173.315 77.706C173.736 77.2846 173.973 76.713 173.973 76.117C173.973 75.521 173.736 74.9494 173.315 74.528C172.894 74.1065 172.322 73.8698 171.726 73.8698C171.13 73.8698 170.558 74.1065 170.137 74.528C169.716 74.9494 169.479 75.521 169.479 76.117Z" fill="#331D2C"/>
<path d="M171.726 83.6383C172.171 83.6376 172.606 83.7689 172.977 84.0156C173.347 84.2623 173.636 84.6133 173.807 85.0242C173.978 85.4352 174.023 85.8876 173.937 86.3242C173.85 86.7608 173.637 87.162 173.322 87.477C173.008 87.7921 172.607 88.0068 172.171 88.094C171.734 88.1813 171.282 88.1371 170.87 87.9671C170.459 87.7971 170.107 87.509 169.86 87.1391C169.612 86.7692 169.48 86.3343 169.48 85.8892C169.48 85.5939 169.537 85.3014 169.65 85.0284C169.763 84.7554 169.928 84.5073 170.136 84.2982C170.345 84.0892 170.593 83.9233 170.866 83.8101C171.138 83.6968 171.431 83.6385 171.726 83.6383Z" fill="#331D2C"/>
<path d="M75.7472 178.581C76.1922 178.581 76.6273 178.712 76.9975 178.959C77.3677 179.206 77.6565 179.557 77.8272 179.968C77.9979 180.379 78.0429 180.831 77.9566 181.267C77.8703 181.704 77.6565 182.105 77.3422 182.42C77.0279 182.735 76.6273 182.95 76.191 183.037C75.7547 183.124 75.3023 183.08 74.891 182.91C74.4798 182.74 74.1281 182.452 73.8805 182.083C73.6329 181.713 73.5005 181.278 73.5 180.833C73.4997 180.237 73.7362 179.664 74.1575 179.242C74.5789 178.82 75.1507 178.582 75.7472 178.581Z" fill="#331D2C"/>
<path d="M75.7472 198.128C76.1918 198.128 76.6263 198.26 76.9959 198.507C77.3655 198.754 77.6535 199.105 77.8235 199.515C77.9936 199.926 78.038 200.378 77.9512 200.814C77.8644 201.25 77.6503 201.65 77.3358 201.965C77.0214 202.279 76.6209 202.493 76.1849 202.579C75.7489 202.666 75.297 202.621 74.8864 202.451C74.4758 202.281 74.1249 201.993 73.8781 201.623C73.6314 201.253 73.4998 200.818 73.5 200.374C73.501 199.778 73.7381 199.207 74.1593 198.786C74.5806 198.365 75.1516 198.129 75.7472 198.128Z" fill="#331D2C"/>
<path d="M126.558 138.565C128.35 138.752 130.16 138.623 131.908 138.185C135.793 137.152 137.993 133.008 137.993 133.008C139.355 134.908 140.946 136.633 142.731 138.142L125.389 140.544C125.822 139.938 126.211 139.302 126.553 138.641L126.558 138.565Z" fill="#331D2C"/>
<path d="M119.412 124.911C123.849 118.708 135.195 109.091 142.784 108.319C144.832 108.108 154.618 112.394 162.259 115.813C162.259 115.813 180.071 115.177 182.522 117.942C192.685 129.382 201.591 160.675 203.33 164.151C205.068 167.627 230.12 181.615 238.423 185.911V236.524L189.487 206.917C186.382 207.297 183.242 207.297 180.138 206.917C153.852 201.812 118.627 175.21 111.806 172.049C106.795 169.731 105.603 164.882 104.974 161.627C104.839 160.707 104.63 159.8 104.351 158.914C103.922 158.042 103.35 157.248 102.66 156.564C101.836 155.659 100.848 154.722 99.9667 153.851C99.271 153.188 98.627 152.473 98.0403 151.712C97.3504 150.751 96.9593 149.608 96.9159 148.426C96.8725 147.244 97.1788 146.075 97.7963 145.067C98.2609 144.224 98.8448 143.453 99.5299 142.778C101.955 140.348 107.777 142.424 108.013 142.505C108.24 140.732 108.911 139.045 109.965 137.601C113.653 131.878 114.486 128.761 115.758 127.074C116.17 126.506 116.731 126.062 117.379 125.793C117.852 125.589 118.559 125.283 119.412 124.911ZM126.558 138.565V138.646C126.216 139.307 125.827 139.943 125.394 140.549C123.72 143.052 121.328 144.989 118.531 146.106C118.179 146.228 117.807 146.337 117.433 146.432C118.931 147.981 120.221 149.717 121.272 151.598C121.545 152.09 121.784 152.6 121.988 153.125C121.988 153.125 135.497 161.474 137.672 162.681C137.672 162.681 151.547 155.319 155.777 153.265C155.777 153.265 151.246 148.622 150.266 147.392L171.405 144.458L176.929 143.638L179.397 143.272C180.731 143.07 181.93 142.349 182.732 141.265C183.535 140.181 183.875 138.823 183.679 137.489C183.483 136.155 182.766 134.953 181.686 134.146C180.605 133.339 179.249 132.993 177.914 133.184L175.441 133.55C175.431 133.549 175.422 133.549 175.413 133.55L169.923 134.365L142.746 138.137C140.961 136.628 139.369 134.903 138.008 133.003C138.008 133.003 135.812 137.151 131.922 138.18C130.17 138.622 128.355 138.752 126.558 138.565Z" fill="#FFC077"/>
<path d="M238.423 185.915C230.12 181.619 205.067 167.625 203.33 164.155C201.593 160.684 192.686 129.385 182.522 117.946C180.072 115.18 162.26 115.817 162.26 115.817" stroke="#331D2C" stroke-width="1.544" stroke-linecap="round" stroke-linejoin="round"/>
<path d="M108.01 142.513C107.775 142.433 101.953 140.356 99.5275 142.786C98.8423 143.462 98.2584 144.233 97.7939 145.075C97.1763 146.084 96.8701 147.253 96.9135 148.435C96.9569 149.617 97.348 150.76 98.0379 151.72C98.6246 152.481 99.2686 153.196 99.9642 153.859C100.845 154.73 101.833 155.667 102.658 156.572C103.348 157.257 103.919 158.051 104.349 158.922C104.628 159.809 104.836 160.716 104.971 161.635C105.602 164.889 106.794 169.736 111.803 172.058C118.624 175.219 153.849 201.826 180.135 206.925C183.24 207.306 186.379 207.306 189.484 206.925L238.421 236.532" stroke="#331D2C" stroke-width="1.544" stroke-linecap="round" stroke-linejoin="round"/>
<path d="M117.415 146.427H117.425C118.922 147.976 120.213 149.712 121.263 151.593C121.536 152.085 121.775 152.595 121.979 153.12C121.979 153.12 135.488 161.469 137.663 162.676C137.663 162.676 151.538 155.314 155.768 153.26C155.768 153.26 151.237 148.617 150.257 147.387L150.244 147.377" stroke="#331D2C" stroke-width="1.544" stroke-linecap="round" stroke-linejoin="round"/>
<path d="M102.659 156.567C102.659 156.567 104.092 151.404 105.282 150.053C106.473 148.701 103.422 145.569 101.472 144.171" stroke="#331D2C" stroke-width="1.544" stroke-linecap="round" stroke-linejoin="round"/>
<path d="M107.256 157.502C106.524 158.628 104.694 160.319 104.972 161.628" stroke="#331D2C" stroke-width="1.544" stroke-linecap="round" stroke-linejoin="round"/>
<path d="M142.784 138.185L142.731 138.142C140.946 136.633 139.354 134.908 137.993 133.008C137.993 133.008 135.797 137.156 131.907 138.185C130.16 138.623 128.35 138.752 126.558 138.565C125.787 138.498 125.023 138.371 124.273 138.185" stroke="#331D2C" stroke-width="1.544" stroke-linecap="round" stroke-linejoin="round"/>
<path d="M126.553 138.646C126.211 139.307 125.822 139.943 125.389 140.549C123.715 143.052 121.323 144.989 118.527 146.106C118.174 146.228 117.802 146.337 117.429 146.432C117.221 146.478 117.014 146.521 116.798 146.554C111.984 147.387 107.792 146.295 108.014 142.503C108.241 140.731 108.913 139.044 109.966 137.6C113.654 131.877 114.487 128.759 115.76 127.073C116.171 126.505 116.732 126.061 117.38 125.792C117.868 125.584 118.57 125.278 119.423 124.906C123.177 123.24 129.875 120.164 134.335 117.83C139.803 114.97 141.542 115.593 144.777 116.959C148.013 118.325 164.541 127.65 164.541 127.65" stroke="#331D2C" stroke-width="1.544" stroke-linecap="round" stroke-linejoin="round"/>
<path d="M170.789 119.589C169.23 118.959 166.003 117.488 162.259 115.817C154.619 112.401 144.832 108.111 142.784 108.323C135.195 109.091 123.849 118.708 119.412 124.915" stroke="#331D2C" stroke-width="1.544" stroke-linecap="round" stroke-linejoin="round"/>
<path d="M125.389 140.549L142.731 138.142L169.908 134.37" stroke="#331D2C" stroke-width="1.544" stroke-linecap="round" stroke-linejoin="round"/>
<path d="M171.396 144.458L150.257 147.392L121.706 151.358" stroke="#331D2C" stroke-width="1.544" stroke-linecap="round" stroke-linejoin="round"/>
<path d="M93.5178 147.66L88.0254 150.991L92.4064 152.12L93.3897 152.375L99.7911 154.029" stroke="#331D2C" stroke-width="1.544" stroke-linecap="round" stroke-linejoin="round"/>
<path d="M97.7842 145.07L93.5178 147.66" stroke="#331D2C" stroke-width="1.544" stroke-linecap="round" stroke-linejoin="round"/>
<path d="M176.921 143.638L171.397 144.458C170.18 144.46 169.008 144.004 168.113 143.181C167.217 142.358 166.664 141.228 166.564 140.016V139.96C166.356 138.781 166.58 137.566 167.195 136.539C167.81 135.512 168.775 134.742 169.913 134.37L175.403 133.555" stroke="#331D2C" stroke-width="1.544" stroke-linecap="round" stroke-linejoin="round"/>
<path d="M176.921 143.638L179.389 143.272C180.722 143.07 181.922 142.349 182.724 141.265C183.527 140.181 183.867 138.823 183.671 137.489C183.475 136.155 182.758 134.953 181.677 134.146C180.597 133.339 179.24 132.993 177.905 133.184L175.432 133.55C175.423 133.549 175.414 133.549 175.404 133.55C175.07 133.653 172.103 134.648 172.819 139.406C172.909 140.476 173.367 141.483 174.114 142.254C174.862 143.026 175.854 143.515 176.921 143.638Z" stroke="#331D2C" stroke-width="1.544" stroke-linecap="round" stroke-linejoin="round"/>
<path d="M88.0252 150.991L85.2424 151.259" stroke="#331D2C" stroke-width="1.544" stroke-linecap="round" stroke-linejoin="round"/>
<path d="M42.6682 115.656H12.9112C11.2436 115.656 9.64446 114.993 8.46533 113.814C7.28619 112.635 6.62361 111.036 6.62329 109.368V43.1136C6.62394 41.4461 7.28662 39.8471 8.46568 38.6681C9.64475 37.489 11.2437 36.8263 12.9112 36.8257H42.6682C44.3357 36.826 45.9349 37.4886 47.114 38.6677C48.2932 39.8469 48.9557 41.446 48.9561 43.1136V109.368C48.9557 111.036 48.2932 112.635 47.114 113.814C45.9349 114.993 44.3357 115.656 42.6682 115.656Z" stroke="#331D2C" stroke-width="1.544" stroke-linecap="round" stroke-linejoin="round"/>
<path d="M42.6451 111.996H12.932C12.7266 111.996 12.5233 111.956 12.3336 111.877C12.1439 111.798 11.9716 111.683 11.8265 111.538C11.6813 111.393 11.5662 111.22 11.4878 111.03C11.4093 110.841 11.369 110.637 11.3691 110.432V43.088C11.3687 42.8824 11.4087 42.6788 11.4871 42.4888C11.5654 42.2987 11.6804 42.126 11.8256 41.9805C11.9708 41.835 12.1432 41.7196 12.3331 41.6408C12.5229 41.562 12.7264 41.5215 12.932 41.5215H42.6451C43.0604 41.5212 43.4589 41.6857 43.7531 41.9789C44.0473 42.2722 44.213 42.6702 44.214 43.0855V110.43C44.214 110.635 44.1734 110.839 44.0945 111.03C44.0156 111.22 43.9 111.393 43.7543 111.538C43.6086 111.684 43.4356 111.799 43.2453 111.877C43.0549 111.956 42.851 111.996 42.6451 111.996Z" stroke="#331D2C" stroke-width="1.544" stroke-linecap="round" stroke-linejoin="round"/>
<path d="M19.2136 39.129H34.9016" stroke="#331D2C" stroke-width="1.544" stroke-linecap="round" stroke-linejoin="round"/>
<path d="M37.676 26.7229H27.0559" stroke="#331D2C" stroke-width="1.544" stroke-linecap="round" stroke-linejoin="round"/>
<path d="M14.7913 26.2434C14.7913 27.4251 15.2607 28.5583 16.0962 29.3939C16.9318 30.2294 18.065 30.6988 19.2467 30.6988C20.4284 30.6988 21.5616 30.2294 22.3972 29.3939C23.2327 28.5583 23.7021 27.4251 23.7021 26.2434C23.7021 25.0617 23.2327 23.9285 22.3972 23.0929C21.5616 22.2574 20.4284 21.788 19.2467 21.788C18.065 21.788 16.9318 22.2574 16.0962 23.0929C15.2607 23.9285 14.7913 25.0617 14.7913 26.2434Z" stroke="#331D2C" stroke-width="1.544" stroke-linecap="round" stroke-linejoin="round"/>
<path d="M62.2199 228.036H32.458C31.6323 228.036 30.8145 227.874 30.0516 227.558C29.2886 227.242 28.5954 226.779 28.0115 226.195C27.4276 225.611 26.9644 224.918 26.6485 224.155C26.3325 223.392 26.17 222.574 26.1702 221.748V155.493C26.17 154.667 26.3325 153.849 26.6485 153.086C26.9645 152.323 27.4276 151.63 28.0116 151.046C28.5955 150.463 29.2887 150 30.0517 149.684C30.8146 149.368 31.6323 149.206 32.458 149.206H62.2199C63.8873 149.206 65.4863 149.869 66.6654 151.048C67.8445 152.226 68.5072 153.825 68.5078 155.493V221.748C68.5072 223.416 67.8445 225.015 66.6654 226.194C65.4864 227.373 63.8874 228.036 62.2199 228.036Z" stroke="#331D2C" stroke-width="1.544" stroke-linecap="round" stroke-linejoin="round"/>
<path d="M62.1919 224.371H32.4764C32.0618 224.371 31.6643 224.206 31.3712 223.913C31.078 223.619 30.913 223.222 30.9124 222.807V155.469C30.9124 155.055 31.0771 154.657 31.3705 154.363C31.6638 154.07 32.0616 153.905 32.4764 153.905H62.1919C62.3973 153.905 62.6006 153.946 62.7903 154.024C62.98 154.103 63.1523 154.218 63.2974 154.364C63.4426 154.509 63.5577 154.681 63.6361 154.871C63.7146 155.061 63.7549 155.264 63.7548 155.469V222.807C63.7544 223.222 63.5897 223.619 63.2967 223.912C63.0038 224.206 62.6064 224.371 62.1919 224.371Z" stroke="#331D2C" stroke-width="1.544" stroke-linecap="round" stroke-linejoin="round"/>
<path d="M38.7544 151.508H54.4436" stroke="#331D2C" stroke-width="1.544" stroke-linecap="round" stroke-linejoin="round"/>
<path d="M57.2229 139.107H46.6016" stroke="#331D2C" stroke-width="1.544" stroke-linecap="round" stroke-linejoin="round"/>
<path d="M43.2429 138.622C43.2432 139.503 42.9821 140.364 42.4929 141.097C42.0036 141.829 41.3081 142.4 40.4943 142.738C39.6805 143.075 38.785 143.163 37.921 142.991C37.0571 142.819 36.2635 142.395 35.6407 141.772C35.0179 141.149 34.5939 140.355 34.4223 139.491C34.2506 138.627 34.3391 137.732 34.6765 136.918C35.0138 136.104 35.585 135.409 36.3176 134.92C37.0502 134.431 37.9115 134.17 38.7924 134.171C39.9728 134.171 41.1048 134.64 41.9395 135.475C42.7741 136.31 43.2429 137.442 43.2429 138.622Z" stroke="#331D2C" stroke-width="1.544" stroke-linecap="round" stroke-linejoin="round"/>
<path d="M128.662 100.994H98.9053C98.0798 100.994 97.2623 100.832 96.4996 100.516C95.7369 100.2 95.044 99.7364 94.4605 99.1524C93.877 98.5684 93.4143 97.8751 93.0989 97.1122C92.7834 96.3493 92.6215 95.5317 92.6223 94.7061V28.4601C92.6217 27.6346 92.7837 26.8171 93.0992 26.0542C93.4147 25.2914 93.8773 24.5982 94.4608 24.0142C95.0443 23.4303 95.7372 22.967 96.4998 22.651C97.2624 22.3349 98.0798 22.1722 98.9053 22.1722H128.662C129.488 22.1716 130.306 22.3338 131.069 22.6496C131.833 22.9653 132.526 23.4285 133.11 24.0125C133.694 24.5965 134.157 25.2899 134.473 26.0531C134.789 26.8163 134.951 27.6342 134.95 28.4601V94.7061C134.951 95.5321 134.789 96.3501 134.473 97.1133C134.158 97.8766 133.694 98.5701 133.11 99.1541C132.526 99.7382 131.833 100.201 131.07 100.517C130.306 100.833 129.488 100.995 128.662 100.994Z" stroke="#331D2C" stroke-width="1.544" stroke-linecap="round" stroke-linejoin="round"/>
<path d="M128.644 97.3352H98.9285C98.514 97.3339 98.1169 97.1685 97.824 96.8752C97.5311 96.5819 97.3664 96.1845 97.3657 95.77V28.426C97.366 28.0115 97.5308 27.614 97.8237 27.3208C98.1167 27.0276 98.514 26.8626 98.9285 26.8619H128.644C129.059 26.8623 129.456 27.0271 129.75 27.3204C130.043 27.6136 130.208 28.0113 130.208 28.426V95.77C130.207 96.1847 130.043 96.5823 129.749 96.8756C129.456 97.169 129.059 97.3343 128.644 97.3352Z" stroke="#331D2C" stroke-width="1.544" stroke-linecap="round" stroke-linejoin="round"/>
<path d="M105.208 24.4719H120.896" stroke="#331D2C" stroke-width="1.544" stroke-linecap="round" stroke-linejoin="round"/>
<path d="M123.675 12.0658H113.054" stroke="#331D2C" stroke-width="1.544" stroke-linecap="round" stroke-linejoin="round"/>
<path d="M109.696 11.59C109.696 12.4708 109.435 13.3318 108.945 14.0641C108.456 14.7964 107.76 15.3672 106.946 15.7041C106.132 16.0411 105.237 16.1292 104.373 15.9573C103.509 15.7854 102.715 15.3612 102.092 14.7383C101.47 14.1155 101.045 13.3219 100.873 12.458C100.702 11.5941 100.79 10.6986 101.127 9.88475C101.464 9.0709 102.034 8.37523 102.767 7.8857C103.499 7.39617 104.36 7.13476 105.241 7.13452C105.826 7.13436 106.405 7.2495 106.946 7.47335C107.487 7.6972 107.978 8.02537 108.392 8.43913C108.805 8.85289 109.134 9.34412 109.357 9.88475C109.581 10.4254 109.696 11.0048 109.696 11.59Z" stroke="#331D2C" stroke-width="1.544" stroke-linecap="round" stroke-linejoin="round"/>
<path d="M213.682 115.656H183.925C182.257 115.656 180.658 114.993 179.479 113.814C178.3 112.635 177.637 111.036 177.637 109.368V43.1136C177.637 41.4461 178.3 39.8471 179.479 38.6681C180.658 37.489 182.257 36.8263 183.925 36.8257H213.682C214.507 36.8255 215.325 36.9881 216.088 37.304C216.851 37.6199 217.544 38.0831 218.128 38.667C218.712 39.2509 219.175 39.9442 219.491 40.7071C219.807 41.4701 219.97 42.2878 219.969 43.1136V109.368C219.97 110.194 219.807 111.012 219.492 111.775C219.176 112.538 218.712 113.231 218.129 113.815C217.545 114.399 216.851 114.862 216.088 115.178C215.325 115.494 214.507 115.656 213.682 115.656Z" stroke="#331D2C" stroke-width="1.544" stroke-linecap="round" stroke-linejoin="round"/>
<path d="M213.663 111.996H183.948C183.533 111.995 183.136 111.83 182.843 111.537C182.55 111.244 182.385 110.846 182.385 110.432V43.088C182.386 42.6736 182.55 42.2763 182.843 41.9832C183.136 41.69 183.533 41.5249 183.948 41.5239H213.663C214.078 41.5249 214.475 41.69 214.768 41.9831C215.061 42.2762 215.226 42.6735 215.227 43.088V110.432C215.227 110.847 215.062 111.244 214.769 111.537C214.475 111.83 214.078 111.995 213.663 111.996Z" stroke="#331D2C" stroke-width="1.544" stroke-linecap="round" stroke-linejoin="round"/>
<path d="M190.227 39.129H205.915" stroke="#331D2C" stroke-width="1.544" stroke-linecap="round" stroke-linejoin="round"/>
<path d="M208.689 26.7229H198.068" stroke="#331D2C" stroke-width="1.544" stroke-linecap="round" stroke-linejoin="round"/>
<path d="M185.805 26.2434C185.805 27.4251 186.274 28.5583 187.11 29.3939C187.945 30.2294 189.078 30.6988 190.26 30.6988C191.442 30.6988 192.575 30.2294 193.411 29.3939C194.246 28.5583 194.716 27.4251 194.716 26.2434C194.716 25.0617 194.246 23.9285 193.411 23.0929C192.575 22.2574 191.442 21.788 190.26 21.788C189.078 21.788 187.945 22.2574 187.11 23.0929C186.274 23.9285 185.805 25.0617 185.805 26.2434Z" stroke="#331D2C" stroke-width="1.544" stroke-linecap="round" stroke-linejoin="round"/>
<path d="M77.9981 180.833C77.9977 181.278 77.8653 181.713 77.6179 182.082C77.3705 182.452 77.019 182.74 76.608 182.91C76.1969 183.08 75.7447 183.124 75.3085 183.037C74.8723 182.95 74.4717 182.736 74.1573 182.421C73.8428 182.107 73.6287 181.706 73.542 181.27C73.4552 180.833 73.4998 180.381 73.6699 179.97C73.8401 179.559 74.1282 179.208 74.498 178.961C74.8677 178.713 75.3025 178.581 75.7472 178.581C76.043 178.581 76.3358 178.639 76.6091 178.752C76.8823 178.865 77.1306 179.031 77.3397 179.241C77.5487 179.45 77.7145 179.698 77.8275 179.971C77.9405 180.245 77.9985 180.538 77.9981 180.833Z" stroke="#331D2C" stroke-width="1.544" stroke-linecap="round" stroke-linejoin="round"/>
<path d="M77.9981 200.374C77.9989 200.819 77.8676 201.254 77.6209 201.625C77.3742 201.995 77.0231 202.284 76.6122 202.455C76.2013 202.626 75.7489 202.671 75.3123 202.585C74.8757 202.498 74.4745 202.284 74.1594 201.97C73.8444 201.656 73.6297 201.255 73.5424 200.819C73.4552 200.382 73.4994 199.93 73.6693 199.518C73.8393 199.107 74.1275 198.755 74.4973 198.508C74.8672 198.26 75.3022 198.128 75.7472 198.128C76.0426 198.127 76.3351 198.185 76.6081 198.298C76.8811 198.41 77.1292 198.576 77.3382 198.784C77.5473 198.993 77.7131 199.241 77.8264 199.514C77.9396 199.786 77.998 200.079 77.9981 200.374Z" stroke="#331D2C" stroke-width="1.544" stroke-linecap="round" stroke-linejoin="round"/>
<path d="M78.2336 200.374H138.526V189.137" stroke="#331D2C" stroke-width="1.544" stroke-linecap="round" stroke-linejoin="round"/>
<path d="M53.958 47.8471C53.958 48.1422 54.0161 48.4344 54.1291 48.7071C54.242 48.9797 54.4075 49.2275 54.6162 49.4361C54.8249 49.6448 55.0726 49.8103 55.3453 49.9233C55.6179 50.0362 55.9101 50.0943 56.2052 50.0943C56.5004 50.0943 56.7926 50.0362 57.0652 49.9233C57.3379 49.8103 57.5856 49.6448 57.7943 49.4361C58.003 49.2275 58.1685 48.9797 58.2814 48.7071C58.3944 48.4344 58.4525 48.1422 58.4525 47.8471C58.4525 47.552 58.3944 47.2598 58.2814 46.9871C58.1685 46.7145 58.003 46.4667 57.7943 46.2581C57.5856 46.0494 57.3379 45.8838 57.0652 45.7709C56.7926 45.658 56.5004 45.5999 56.2052 45.5999C55.9101 45.5999 55.6179 45.658 55.3453 45.7709C55.0726 45.8838 54.8249 46.0494 54.6162 46.2581C54.4075 46.4667 54.242 46.7145 54.1291 46.9871C54.0161 47.2598 53.958 47.552 53.958 47.8471Z" stroke="#331D2C" stroke-width="1.544" stroke-linecap="round" stroke-linejoin="round"/>
<path d="M58.4514 47.8472H75.7474V119.438H124.08" stroke="#331D2C" stroke-width="1.544" stroke-linecap="round" stroke-linejoin="round"/>
<path d="M81.7325 151.259H77.998V127.078H115.749H115.753" stroke="#331D2C" stroke-width="1.544" stroke-linecap="round" stroke-linejoin="round"/>
<path d="M173.972 46.7967C173.972 47.2412 173.841 47.6758 173.594 48.0455C173.347 48.4152 172.996 48.7035 172.586 48.8737C172.175 49.044 171.723 49.0887 171.287 49.0021C170.851 48.9155 170.451 48.7016 170.136 48.3874C169.822 48.0731 169.608 47.6727 169.521 47.2368C169.434 46.8008 169.478 46.3489 169.648 45.9382C169.819 45.5275 170.107 45.1765 170.476 44.9295C170.846 44.6825 171.28 44.5507 171.725 44.5507C172.32 44.551 172.892 44.7877 173.313 45.2088C173.734 45.6299 173.971 46.201 173.972 46.7967Z" stroke="#331D2C" stroke-width="1.544" stroke-linecap="round" stroke-linejoin="round"/>
<path d="M140.165 36.0485C140.165 36.6445 140.401 37.2161 140.823 37.6375C141.244 38.059 141.816 38.2957 142.412 38.2957C143.008 38.2957 143.579 38.059 144.001 37.6375C144.422 37.2161 144.659 36.6445 144.659 36.0485C144.659 35.4525 144.422 34.8809 144.001 34.4595C143.579 34.038 143.008 33.8013 142.412 33.8013C141.816 33.8013 141.244 34.038 140.823 34.4595C140.401 34.8809 140.165 35.4525 140.165 36.0485Z" stroke="#331D2C" stroke-width="1.544" stroke-linecap="round" stroke-linejoin="round"/>
<path d="M169.479 66.3436C169.479 66.9396 169.716 67.5112 170.137 67.9326C170.558 68.354 171.13 68.5908 171.726 68.5908C172.322 68.5908 172.894 68.354 173.315 67.9326C173.736 67.5112 173.973 66.9396 173.973 66.3436C173.973 65.7476 173.736 65.176 173.315 64.7545C172.894 64.3331 172.322 64.0963 171.726 64.0963C171.13 64.0963 170.558 64.3331 170.137 64.7545C169.716 65.176 169.479 65.7476 169.479 66.3436Z" stroke="#331D2C" stroke-width="1.544" stroke-linecap="round" stroke-linejoin="round"/>
<path d="M169.479 76.117C169.479 76.713 169.716 77.2846 170.137 77.706C170.558 78.1275 171.13 78.3642 171.726 78.3642C172.322 78.3642 172.894 78.1275 173.315 77.706C173.736 77.2846 173.973 76.713 173.973 76.117C173.973 75.521 173.736 74.9494 173.315 74.528C172.894 74.1065 172.322 73.8698 171.726 73.8698C171.13 73.8698 170.558 74.1065 170.137 74.528C169.716 74.9494 169.479 75.521 169.479 76.117Z" stroke="#331D2C" stroke-width="1.544" stroke-linecap="round" stroke-linejoin="round"/>
<path d="M173.972 85.888C173.971 86.3323 173.839 86.7664 173.592 87.1355C173.344 87.5046 172.993 87.792 172.582 87.9616C172.172 88.1311 171.72 88.1751 171.284 88.0879C170.848 88.0008 170.448 87.7865 170.134 87.4721C169.821 87.1576 169.607 86.7572 169.52 86.3214C169.434 85.8856 169.479 85.4339 169.649 85.0235C169.819 84.6131 170.107 84.2623 170.477 84.0156C170.846 83.7688 171.28 83.6371 171.725 83.6371C172.02 83.6371 172.313 83.6953 172.586 83.8085C172.858 83.9217 173.106 84.0875 173.315 84.2966C173.524 84.5056 173.689 84.7538 173.802 85.0269C173.915 85.2999 173.973 85.5926 173.972 85.888Z" stroke="#331D2C" stroke-width="1.544" stroke-linecap="round" stroke-linejoin="round"/>
<path d="M142.412 38.2958V66.3436H153.009H169.48" stroke="#331D2C" stroke-width="1.544" stroke-linecap="round" stroke-linejoin="round"/>
<path d="M169.48 76.1169H161.972V115.327" stroke="#331D2C" stroke-width="1.544" stroke-linecap="round" stroke-linejoin="round"/>
<path d="M169.48 85.8892H166.531V115.327" stroke="#331D2C" stroke-width="1.544" stroke-linecap="round" stroke-linejoin="round"/>
<path d="M169.48 46.7968H153.009V66.3436V111.502" stroke="#331D2C" stroke-width="1.544" stroke-linecap="round" stroke-linejoin="round"/>
<path d="M15.3132 61.7893C15.3132 63.4278 15.636 65.0503 16.263 66.564C16.89 68.0778 17.8091 69.4533 18.9676 70.6118C20.1262 71.7704 21.5017 72.6895 23.0155 73.3165C24.5292 73.9435 26.1517 74.2663 27.7902 74.2663C29.4287 74.2663 31.0511 73.9435 32.5649 73.3165C34.0787 72.6895 35.4541 71.7704 36.6127 70.6118C37.7713 69.4533 38.6903 68.0778 39.3174 66.564C39.9444 65.0503 40.2671 63.4278 40.2671 61.7893C40.2671 60.1508 39.9444 58.5284 39.3174 57.0146C38.6903 55.5008 37.7713 54.1254 36.6127 52.9668C35.4541 51.8082 34.0787 50.8892 32.5649 50.2621C31.0511 49.6351 29.4287 49.3124 27.7902 49.3124C26.1517 49.3124 24.5292 49.6351 23.0155 50.2621C21.5017 50.8892 20.1262 51.8082 18.9676 52.9668C17.8091 54.1254 16.89 55.5008 16.263 57.0146C15.636 58.5284 15.3132 60.1508 15.3132 61.7893Z" stroke="#331D2C" stroke-width="1.544" stroke-linecap="round" stroke-linejoin="round"/>
<path d="M15.6428 81.5935H38.4727" stroke="#331D2C" stroke-width="1.544" stroke-linecap="round" stroke-linejoin="round"/>
<path d="M15.6428 88.9233H38.4727" stroke="#331D2C" stroke-width="1.544" stroke-linecap="round" stroke-linejoin="round"/>
<path d="M15.6428 96.2518H38.4727" stroke="#331D2C" stroke-width="1.544" stroke-linecap="round" stroke-linejoin="round"/>
<path d="M35.3591 159.94H57.845V170.094H35.3591V159.94Z" stroke="#331D2C" stroke-width="1.544" stroke-linecap="round" stroke-linejoin="round"/>
<path d="M35.3591 174.597H57.845V184.751H35.3591V174.597Z" stroke="#331D2C" stroke-width="1.544" stroke-linecap="round" stroke-linejoin="round"/>
<path d="M35.3591 189.254H57.845V217.301H35.3591V189.254Z" stroke="#331D2C" stroke-width="1.544" stroke-linecap="round" stroke-linejoin="round"/>
<path d="M205.369 54.412C205.369 55.7102 204.985 56.9794 204.264 58.0591C203.543 59.1387 202.518 59.9804 201.319 60.4776C200.12 60.9748 198.8 61.1052 197.527 60.8523C196.253 60.5994 195.083 59.9746 194.165 59.0569C193.247 58.1392 192.621 56.9698 192.368 55.6966C192.114 54.4234 192.244 53.1036 192.74 51.9041C193.237 50.7046 194.078 49.6792 195.157 48.9578C196.237 48.2363 197.506 47.8511 198.804 47.8508C200.544 47.8505 202.214 48.5415 203.445 49.772C204.676 51.0024 205.368 52.6714 205.369 54.412Z" stroke="#331D2C" stroke-width="1.544" stroke-linecap="round" stroke-linejoin="round"/>
<path d="M189.557 67.6147H208.054" stroke="#331D2C" stroke-width="1.544" stroke-linecap="round" stroke-linejoin="round"/>
<path d="M189.557 72.4996H208.054" stroke="#331D2C" stroke-width="1.544" stroke-linecap="round" stroke-linejoin="round"/>
<path d="M205.369 85.1925C205.368 86.4905 204.983 87.7592 204.261 88.8383C203.54 89.9173 202.515 90.7582 201.315 91.2546C200.116 91.7511 198.797 91.8808 197.524 91.6273C196.251 91.3739 195.081 90.7487 194.163 89.8308C193.246 88.9129 192.621 87.7435 192.368 86.4704C192.114 85.1973 192.244 83.8778 192.741 82.6786C193.238 81.4793 194.079 80.4543 195.158 79.7331C196.237 79.0118 197.506 78.6267 198.804 78.6265C199.666 78.6263 200.52 78.796 201.317 79.126C202.113 79.4559 202.837 79.9396 203.447 80.5493C204.056 81.1591 204.54 81.883 204.87 82.6797C205.199 83.4764 205.369 84.3303 205.369 85.1925Z" stroke="#331D2C" stroke-width="1.544" stroke-linecap="round" stroke-linejoin="round"/>
<path d="M189.557 98.3942H208.054" stroke="#331D2C" stroke-width="1.544" stroke-linecap="round" stroke-linejoin="round"/>
<path d="M189.557 103.284H208.054" stroke="#331D2C" stroke-width="1.544" stroke-linecap="round" stroke-linejoin="round"/>
<path d="M77.998 180.833H125.389" stroke="#331D2C" stroke-width="1.544" stroke-linecap="round" stroke-linejoin="round"/>
</svg>
