<svg width="263" height="263" viewBox="0 0 263 263" fill="none" xmlns="http://www.w3.org/2000/svg">
<path d="M247.766 71.0468L237.187 126.394C235.707 125.53 234.17 124.77 232.584 124.122C233.225 119.423 232.993 116.814 231.998 115.333C232.143 115.088 232.243 114.818 232.295 114.538C232.42 113.878 232.279 113.196 231.901 112.64C231.523 112.085 230.941 111.703 230.281 111.577C229.621 111.452 228.939 111.593 228.383 111.971C227.828 112.349 227.446 112.931 227.32 113.591C227.307 113.667 227.294 113.747 227.285 113.822C225.325 114.702 224.041 117.703 222.747 121.303L222.72 121.566C214.745 120.616 206.675 122.248 199.695 126.222C199.157 116.713 202.477 104.231 199.547 100.053C199.697 99.8076 199.799 99.5365 199.85 99.2536C199.919 98.8912 199.909 98.518 199.819 98.1602C199.729 97.8023 199.562 97.4685 199.329 97.182C199.097 96.8955 198.804 96.6633 198.473 96.5017C198.141 96.3401 197.778 96.2529 197.409 96.2463C197.04 96.2397 196.674 96.3138 196.337 96.4634C196 96.6131 195.699 96.8346 195.457 97.1126C195.214 97.3906 195.035 97.7182 194.932 98.0726C194.83 98.427 194.806 98.7995 194.862 99.1642C188.221 103.147 187.138 127.977 178.492 126.582C169.788 125.172 182.688 89.8119 176.229 81.8246C176.427 81.5393 176.562 81.2146 176.623 80.8725C176.685 80.5459 176.683 80.2103 176.616 79.8847C176.548 79.5591 176.418 79.25 176.231 78.9749C176.044 78.6999 175.805 78.4643 175.527 78.2817C175.249 78.099 174.938 77.9729 174.612 77.9105C174.285 77.848 173.95 77.8505 173.624 77.9178C173.298 77.9851 172.989 78.1159 172.714 78.3026C172.439 78.4894 172.204 78.7285 172.021 79.0063C171.838 79.2841 171.712 79.5952 171.65 79.9217C171.605 80.1529 171.593 80.3894 171.614 80.624C162.034 85.4684 161.506 137.206 147.7 134.89C134.142 132.618 149.153 91.6792 142.512 83.5577C142.561 83.4297 142.598 83.2977 142.624 83.1632C142.686 82.8363 142.684 82.5003 142.616 82.1744C142.549 81.8485 142.418 81.5391 142.231 81.2638C142.044 80.9885 141.804 80.7527 141.526 80.57C141.248 80.3872 140.937 80.261 140.61 80.1986C140.283 80.1361 139.947 80.1387 139.621 80.2061C139.295 80.2735 138.986 80.4045 138.71 80.5915C138.435 80.7785 138.199 81.0179 138.017 81.2961C137.834 81.5742 137.708 81.8856 137.645 82.2125C137.623 82.3328 137.61 82.4545 137.604 82.5767C128.213 86.7032 123.01 120.508 117.53 119.779L131.106 48.7457L247.766 71.0468ZM162.042 60.9042C162.144 60.3749 162.085 59.8275 161.876 59.3311C161.666 58.8348 161.313 58.4118 160.863 58.1158C160.413 57.8197 159.885 57.6638 159.346 57.6678C158.807 57.6719 158.281 57.8356 157.835 58.1383C157.39 58.4411 157.044 58.8692 156.841 59.3686C156.639 59.8681 156.589 60.4163 156.698 60.9441C156.807 61.4718 157.07 61.9554 157.454 62.3335C157.838 62.7117 158.325 62.9676 158.855 63.0687C159.564 63.2018 160.297 63.0489 160.895 62.6434C161.492 62.2379 161.904 61.6127 162.042 60.9042ZM150.641 58.7213C150.742 58.192 150.684 57.6446 150.475 57.1482C150.265 56.6519 149.912 56.2289 149.462 55.9329C149.012 55.6368 148.484 55.4809 147.945 55.4849C147.406 55.489 146.88 55.6527 146.434 55.9554C145.989 56.2582 145.643 56.6863 145.44 57.1857C145.238 57.6852 145.188 58.2334 145.297 58.7612C145.406 59.2889 145.669 59.7725 146.053 60.1506C146.437 60.5288 146.924 60.7847 147.454 60.8858C148.163 61.0214 148.898 60.8696 149.496 60.4637C150.093 60.0577 150.506 59.431 150.641 58.7213ZM139.243 56.545C139.344 56.0159 139.285 55.4689 139.075 54.973C138.865 54.4772 138.512 54.0548 138.062 53.7592C137.612 53.4636 137.084 53.3082 136.546 53.3125C136.007 53.3168 135.482 53.4807 135.037 53.7835C134.591 54.0862 134.245 54.5143 134.043 55.0134C133.841 55.5126 133.791 56.0605 133.901 56.5879C134.01 57.1152 134.273 57.5984 134.657 57.9763C135.04 58.3542 135.528 58.6098 136.057 58.7108C136.766 58.8449 137.5 58.6923 138.097 58.2863C138.694 57.8803 139.106 57.2542 139.243 56.545Z" fill="#F0F0F0"/>
<path d="M244.853 132.305C251.898 139.35 255.856 148.905 255.856 158.868C255.856 168.831 251.898 178.386 244.853 185.431C237.808 192.476 228.253 196.434 218.29 196.434C208.327 196.434 198.772 192.476 191.727 185.431L218.29 158.868L244.853 132.305Z" fill="#FFC077"/>
<path d="M244.853 132.305L218.29 158.865L191.727 132.302C196.973 127.062 203.65 123.49 210.92 122.034C218.19 120.578 225.728 121.304 232.587 124.119C234.172 124.768 235.71 125.527 237.189 126.391C239.989 128.023 242.565 130.011 244.853 132.305Z" fill="#331D2C"/>
<path d="M232.004 115.333C233 116.814 233.231 119.423 232.591 124.122C229.435 122.824 226.117 121.964 222.728 121.565L222.755 121.302C224.049 117.702 225.333 114.701 227.293 113.821C227.237 114.397 227.381 114.974 227.699 115.456C228.017 115.939 228.49 116.298 229.041 116.475C229.591 116.651 230.185 116.634 230.725 116.426C231.264 116.218 231.716 115.832 232.006 115.332L232.004 115.333Z" fill="#F0F0F0"/>
<path d="M230.288 111.578C230.947 111.703 231.53 112.086 231.908 112.641C232.285 113.196 232.427 113.878 232.301 114.538C232.25 114.818 232.149 115.088 232.004 115.333C231.379 114.466 230.445 113.871 229.394 113.671C228.696 113.475 227.952 113.528 227.29 113.822C227.299 113.747 227.312 113.667 227.327 113.591C227.388 113.264 227.514 112.953 227.696 112.674C227.879 112.396 228.114 112.156 228.389 111.969C228.664 111.782 228.974 111.652 229.3 111.584C229.625 111.517 229.961 111.515 230.288 111.578Z" fill="#331D2C"/>
<path d="M232.004 115.333C231.714 115.834 231.262 116.22 230.723 116.428C230.184 116.636 229.589 116.653 229.039 116.476C228.489 116.3 228.015 115.94 227.697 115.458C227.379 114.975 227.236 114.398 227.291 113.822C227.953 113.528 228.698 113.475 229.395 113.671C230.445 113.871 231.379 114.466 232.004 115.333Z" fill="#331D2C"/>
<path d="M218.29 158.865L191.727 185.428C188.237 181.941 185.468 177.8 183.579 173.242C181.691 168.684 180.718 163.799 180.718 158.865C180.718 153.931 181.691 149.046 183.579 144.488C185.468 139.93 188.237 135.789 191.727 132.302L218.29 158.865Z" fill="#69D6F9"/>
<path d="M197.843 96.2948C198.17 96.3566 198.481 96.4824 198.759 96.6648C199.038 96.8472 199.277 97.0827 199.464 97.3578C199.651 97.6328 199.782 97.9421 199.849 98.2679C199.917 98.5937 199.919 98.9295 199.856 99.2562C199.806 99.5391 199.703 99.8102 199.554 100.056C199.1 99.3778 198.4 98.903 197.602 98.7315C197.141 98.6179 196.661 98.5979 196.192 98.6727C195.723 98.7474 195.273 98.9154 194.87 99.1668C194.807 98.7663 194.842 98.3567 194.971 97.9725C195.1 97.5883 195.32 97.2407 195.611 96.9592C195.903 96.6776 196.258 96.4702 196.646 96.3546C197.034 96.239 197.445 96.2185 197.843 96.2948Z" fill="#331D2C"/>
<path d="M199.554 100.056C202.484 104.23 199.159 116.712 199.701 126.224C194.844 128.995 190.665 132.813 187.469 137.402C184.273 141.991 182.141 147.235 181.227 152.752L157.833 148.281L113.692 139.844L117.089 122.068L117.53 119.783C123.01 120.512 128.211 86.7072 137.616 82.582C137.59 83.1856 137.781 83.7785 138.154 84.2538C138.527 84.7291 139.057 85.0555 139.649 85.1741C140.242 85.2926 140.857 85.1956 141.384 84.9004C141.911 84.6052 142.315 84.1313 142.524 83.5643C149.165 91.6858 134.154 132.624 147.711 134.897C161.519 137.212 162.045 85.475 171.626 80.6306C171.674 81.1483 171.88 81.6389 172.216 82.0353C172.552 82.4318 173.003 82.715 173.506 82.8462C174.009 82.9775 174.54 82.9504 175.028 82.7688C175.515 82.5871 175.934 82.2597 176.229 81.8311C182.688 89.8185 169.785 125.179 178.492 126.588C187.138 127.984 188.223 103.154 194.863 99.1707C194.942 99.6879 195.179 100.168 195.543 100.544C195.906 100.921 196.377 101.176 196.891 101.273C197.405 101.371 197.936 101.306 198.412 101.089C198.888 100.872 199.285 100.512 199.547 100.06L199.554 100.056Z" fill="#F0F0F0"/>
<path d="M197.602 98.7315C198.4 98.903 199.1 99.3778 199.554 100.056C199.291 100.508 198.894 100.868 198.419 101.085C197.943 101.302 197.411 101.367 196.897 101.269C196.383 101.172 195.912 100.917 195.549 100.541C195.186 100.164 194.949 99.6839 194.87 99.1668C195.273 98.9154 195.723 98.7474 196.192 98.6727C196.661 98.5979 197.141 98.6179 197.602 98.7315Z" fill="#331D2C"/>
<path d="M174.622 77.9111C175.281 78.0379 175.864 78.4211 176.241 78.9767C176.619 79.5323 176.761 80.215 176.636 80.8751C176.572 81.2175 176.435 81.5422 176.235 81.8272C175.615 81.0369 174.725 80.5021 173.737 80.3241C173.017 80.1822 172.271 80.2888 171.621 80.6266C171.599 80.392 171.611 80.1555 171.656 79.9243C171.718 79.5972 171.844 79.2855 172.027 79.0071C172.21 78.7287 172.445 78.4891 172.721 78.3021C172.996 78.115 173.306 77.9842 173.632 77.9171C173.958 77.85 174.295 77.848 174.622 77.9111Z" fill="#331D2C"/>
<path d="M176.235 81.8272C175.941 82.2558 175.521 82.5832 175.034 82.7648C174.547 82.9464 174.016 82.9735 173.512 82.8422C173.009 82.711 172.559 82.4279 172.223 82.0314C171.886 81.6349 171.68 81.1444 171.633 80.6266C172.283 80.2888 173.029 80.1822 173.748 80.3241C174.733 80.5048 175.617 81.0394 176.235 81.8272Z" fill="#331D2C"/>
<path d="M159.878 57.7114C160.408 57.8121 160.896 58.0678 161.281 58.4462C161.666 58.8245 161.93 59.3085 162.039 59.8368C162.149 60.3652 162.099 60.9142 161.897 61.4144C161.694 61.9145 161.348 62.3434 160.901 62.6466C160.455 62.9499 159.929 63.1139 159.389 63.118C158.85 63.1221 158.321 62.966 157.87 62.6695C157.419 62.373 157.067 61.9494 156.856 61.4524C156.646 60.9553 156.589 60.4071 156.69 59.8772C156.828 59.1684 157.24 58.5429 157.837 58.1371C158.435 57.7314 159.168 57.5783 159.878 57.7114Z" fill="#FFC077"/>
<path d="M148.476 55.5338C149.005 55.6347 149.493 55.8903 149.877 56.2684C150.261 56.6465 150.524 57.13 150.633 57.6578C150.743 58.1856 150.693 58.7339 150.491 59.2334C150.288 59.733 149.942 60.1612 149.496 60.4641C149.051 60.767 148.525 60.9308 147.986 60.9349C147.447 60.939 146.919 60.7831 146.469 60.487C146.018 60.191 145.666 59.768 145.456 59.2716C145.246 58.7752 145.188 58.2276 145.289 57.6983C145.425 56.9888 145.837 56.3623 146.434 55.9565C147.032 55.5506 147.766 55.3986 148.476 55.5338Z" fill="#FFC077"/>
<path d="M139.635 173.168L147.738 216.122L141.302 217.335L133.203 174.382L139.635 173.168Z" fill="#69D6F9"/>
<path d="M140.621 80.1992C141.281 80.326 141.864 80.7094 142.241 81.2653C142.619 81.8212 142.761 82.5042 142.636 83.1645C142.61 83.299 142.572 83.431 142.524 83.559C141.95 82.8347 141.122 82.356 140.208 82.2204C139.328 82.0836 138.427 82.2075 137.616 82.5767C137.622 82.4545 137.635 82.3328 137.657 82.2125C137.783 81.5527 138.167 80.97 138.722 80.5925C139.278 80.2151 139.961 80.0736 140.621 80.1992Z" fill="#331D2C"/>
<path d="M140.208 82.2217C141.122 82.3573 141.95 82.836 142.524 83.5604C142.315 84.1274 141.911 84.6012 141.384 84.8964C140.857 85.1916 140.242 85.2887 139.649 85.1701C139.057 85.0515 138.527 84.7251 138.154 84.2498C137.781 83.7745 137.59 83.1816 137.616 82.5781C138.427 82.2088 139.328 82.0849 140.208 82.2217Z" fill="#331D2C"/>
<path d="M128.809 151.098L135.242 149.884L139.638 173.18L133.204 174.394L128.809 151.098Z" fill="#FFC077"/>
<path d="M137.078 53.3561C137.608 53.457 138.095 53.7127 138.479 54.0908C138.864 54.4688 139.127 54.9523 139.236 55.4801C139.346 56.0079 139.296 56.5562 139.093 57.0558C138.891 57.5553 138.545 57.9836 138.099 58.2864C137.653 58.5893 137.128 58.7531 136.589 58.7572C136.05 58.7613 135.522 58.6055 135.071 58.3094C134.621 58.0133 134.269 57.5903 134.059 57.0939C133.849 56.5975 133.791 56.05 133.892 55.5206C134.029 54.8117 134.441 54.1858 135.038 53.7801C135.635 53.3744 136.369 53.222 137.078 53.3561Z" fill="#FFC077"/>
<path d="M126.131 201.538L129.53 219.554V219.558L123.099 220.767L119.698 202.751L126.131 201.538Z" fill="#69D6F9"/>
<path d="M110.606 154.529L117.04 153.315L126.139 201.544L119.705 202.758L110.606 154.529Z" fill="#FFC077"/>
<path d="M105.212 190.576L111.324 222.99L104.891 224.204L98.7749 191.79L105.207 190.576H105.212Z" fill="#69D6F9"/>
<path d="M98.8288 156.74L105.212 190.576H105.207L98.7749 191.79L92.3918 157.954L98.8288 156.74Z" fill="#FFC077"/>
<path d="M96.7524 52.5829C98.7034 59.9763 98.1484 67.808 95.1744 74.8524C90.0541 86.7551 88.6999 99.94 91.2938 112.635L91.4319 113.303C91.7808 114.956 91.4851 116.68 90.6051 118.122C89.7251 119.564 88.3274 120.616 86.6979 121.062L85.6077 121.346L85.5946 121.297L72.509 71.3545C71.5583 76.4567 68.6771 76.4304 66.2365 74.6341C67.8289 71.0337 67.5041 65.2108 64.1917 66.0774C60.6583 66.9979 63.0726 72.3053 66.2365 74.6341C64.9964 77.4443 62.5874 78.9013 59.53 74.7551L72.6129 124.704L72.6261 124.749L71.7818 124.971C71.254 125.102 70.7122 125.169 70.1683 125.171C68.7593 125.168 67.3878 124.716 66.2529 123.881C65.118 123.046 64.2785 121.871 63.8563 120.526C59.9016 107.965 52.194 96.9166 41.7709 88.8677C37.4043 85.4778 33.9085 81.0959 31.5733 76.0853C29.2382 71.0748 28.1308 65.5798 28.343 60.0558C28.5553 54.5319 30.081 49.1381 32.7938 44.3215C35.5066 39.5049 39.3283 35.4042 43.9422 32.3593C48.556 29.3144 53.8291 27.413 59.3244 26.8127C64.8198 26.2124 70.379 26.9305 75.5415 28.9074C80.7039 30.8844 85.3208 34.0632 89.0095 38.1806C92.6982 42.2979 95.3525 47.2351 96.7524 52.5829Z" fill="#FFC077"/>
<path d="M93.3965 129.705C93.5092 130.128 93.537 130.57 93.4783 131.004C93.4196 131.437 93.2756 131.856 93.0546 132.234C92.8336 132.612 92.5399 132.942 92.1906 133.206C91.8412 133.47 91.443 133.663 91.019 133.772L74.4868 138.101C74.0633 138.212 73.6221 138.238 73.1885 138.178C72.7548 138.119 72.3372 137.974 71.9595 137.753C71.5818 137.531 71.2514 137.238 70.9871 136.889C70.7229 136.54 70.53 136.142 70.4195 135.719C70.3463 135.443 70.3092 135.159 70.3091 134.874C70.3101 134.138 70.5549 133.422 71.0052 132.839C71.4554 132.256 72.0859 131.838 72.7984 131.651L89.3292 127.322C90.0519 127.134 90.8169 127.191 91.5029 127.487C91.9666 127.688 92.3782 127.992 92.7064 128.377C93.0345 128.761 93.2706 129.216 93.3965 129.705Z" fill="#69D6F9"/>
<path d="M85.3201 220.407L91.7541 219.194L93.1188 226.432L86.6848 227.645L85.3201 220.407Z" fill="#69D6F9"/>
<path d="M91.7567 133.634C91.9003 134.187 91.9732 134.757 91.9737 135.328C91.9716 136.801 91.4821 138.232 90.5815 139.397C89.6809 140.563 88.4199 141.398 86.9951 141.771L81.4169 143.23C80.5699 143.453 79.6873 143.506 78.8197 143.387C77.952 143.268 77.1163 142.98 76.3603 142.538C75.6044 142.095 74.9431 141.508 74.4142 140.81C73.8854 140.112 73.4994 139.317 73.2783 138.47L91.7567 133.634Z" fill="#69D6F9"/>
<path d="M80.6215 160.176L91.7517 219.189L85.32 220.403L74.1846 161.39L80.6215 160.176Z" fill="#FFC077"/>
<path d="M91.6989 123.201C91.7692 123.477 91.805 123.761 91.8054 124.047C91.8056 124.784 91.5615 125.501 91.1111 126.085C90.6607 126.668 90.0294 127.087 89.3161 127.274L72.7852 131.603C72.2817 131.736 71.7538 131.748 71.2446 131.639C70.7353 131.529 70.2593 131.3 69.8554 130.971C69.468 130.658 69.1552 130.262 68.9398 129.812C68.7244 129.362 68.6118 128.87 68.6101 128.372C68.6112 127.635 68.8559 126.919 69.3062 126.336C69.7565 125.753 70.387 125.336 71.0994 125.149L71.7845 124.971L72.6287 124.749L85.6078 121.352L86.6979 121.068L87.6303 120.824C88.485 120.6 89.3934 120.725 90.1561 121.171C90.9189 121.617 91.4737 122.347 91.6989 123.201Z" fill="#69D6F9"/>
<path d="M85.5908 121.304L85.6039 121.352L72.6249 124.749L72.6117 124.704L59.5288 74.7551C62.5875 78.9013 64.9966 77.4443 66.2353 74.6342C68.6759 76.4305 71.5571 76.4568 72.5079 71.3546L85.5908 121.304Z" fill="#FFC077"/>
<path d="M64.1917 66.0775C67.5042 65.2109 67.829 71.0337 66.2366 74.6342C63.0727 72.3053 60.6583 67.0019 64.1917 66.0775Z" fill="#FFC077"/>
<path d="M57.8403 181.045C58.6398 185.289 57.7211 189.677 55.2863 193.244C52.8514 196.811 49.0997 199.265 44.8559 200.067L44.0117 195.581C46.1967 195.169 48.2194 194.145 49.844 192.627C51.4685 191.109 52.6278 189.16 53.1865 187.008C53.7453 184.856 53.6805 182.589 52.9996 180.473C52.3188 178.356 51.05 176.477 49.3414 175.054L52.408 171.68C55.2394 174.086 57.1574 177.393 57.8403 181.045Z" fill="#69D6F9"/>
<path d="M52.4081 171.68L49.3415 175.054C47.4008 173.433 44.9876 172.483 42.4625 172.346C39.9374 172.21 37.4358 172.894 35.3315 174.296C33.2273 175.699 31.6332 177.744 30.7875 180.128C29.9419 182.511 29.89 185.104 30.6396 187.519L30.5673 187.541L26.141 188.378C26.02 187.95 25.9227 187.519 25.8385 187.08C25.2127 183.768 25.6302 180.344 27.0332 177.279C28.4363 174.215 30.7557 171.661 33.6716 169.971C36.5876 168.281 39.9561 167.537 43.3126 167.843C46.6691 168.148 49.848 169.488 52.4107 171.677L52.4081 171.68Z" fill="#FFC077"/>
<path d="M48.3855 227.373L49.7505 234.605L37.5578 236.908L36.1929 229.67L48.3855 227.373Z" fill="#331D2C"/>
<path d="M46.3539 216.588L47.7188 223.821L35.5209 226.123L34.1572 218.887L46.3539 216.588Z" fill="#331D2C"/>
<path d="M45.7989 142.983C45.9173 143.616 45.8453 144.271 45.5919 144.864C45.3385 145.456 44.9152 145.961 44.3753 146.313C43.8354 146.665 43.2033 146.849 42.5587 146.843C41.9141 146.836 41.286 146.638 40.7537 146.274C40.2214 145.911 39.8088 145.398 39.5681 144.8C39.3273 144.202 39.2691 143.546 39.4009 142.915C39.5327 142.284 39.8486 141.706 40.3086 141.254C40.7686 140.803 41.3521 140.498 41.9854 140.378C42.4069 140.298 42.8399 140.302 43.2598 140.39C43.6796 140.478 44.078 140.648 44.4321 140.89C44.7863 141.132 45.0893 141.441 45.3238 141.8C45.5584 142.159 45.7198 142.561 45.7989 142.983Z" fill="#FFC077"/>
<path d="M44.3182 205.805L45.6832 213.037L33.4852 215.339L32.1216 208.103L44.3182 205.805Z" fill="#331D2C"/>
<path d="M44.0117 195.581L44.8559 200.067C40.8386 200.824 36.6834 200.042 33.2157 197.877C29.748 195.712 27.2216 192.322 26.1382 188.38L30.5645 187.544L30.6368 187.522C31.4874 190.273 33.3208 192.615 35.7875 194.102C38.2542 195.588 41.1816 196.115 44.0117 195.581Z" fill="#331D2C"/>
<path d="M32.1427 145.556C32.2622 146.19 32.1911 146.844 31.9385 147.438C31.6859 148.031 31.2631 148.536 30.7235 148.889C30.1839 149.242 29.5518 149.427 28.907 149.421C28.2622 149.415 27.6338 149.218 27.101 148.855C26.5682 148.492 26.155 147.979 25.9137 147.381C25.6724 146.783 25.6138 146.127 25.7452 145.495C25.8767 144.864 26.1923 144.286 26.6522 143.834C27.1122 143.382 27.6957 143.077 28.3292 142.956C28.7503 142.876 29.183 142.88 29.6026 142.968C30.0222 143.055 30.4205 143.225 30.7746 143.466C31.1288 143.707 31.4319 144.016 31.6666 144.375C31.9014 144.734 32.0631 145.135 32.1427 145.556Z" fill="#FFC077"/>
<path d="M18.4877 148.135C18.6061 148.768 18.534 149.423 18.2807 150.016C18.0273 150.608 17.6039 151.113 17.064 151.465C16.5242 151.817 15.892 152.002 15.2474 151.995C14.6028 151.988 13.9747 151.79 13.4424 151.427C12.9101 151.063 12.4976 150.55 12.2568 149.952C12.016 149.354 11.9578 148.698 12.0896 148.067C12.2214 147.436 12.5373 146.858 12.9973 146.407C13.4573 145.955 14.0408 145.65 14.6742 145.53C15.0957 145.45 15.5288 145.454 15.9487 145.541C16.3687 145.629 16.7672 145.799 17.1215 146.041C17.4757 146.283 17.7787 146.592 18.0132 146.952C18.2476 147.311 18.4089 147.713 18.4877 148.135Z" fill="#FFC077"/>
<path d="M86.6942 121.068C88.3237 120.622 89.7214 119.571 90.6014 118.129C91.4813 116.686 91.7771 114.963 91.4282 113.31L91.2901 112.642C88.6961 99.9465 90.0503 86.7617 95.1707 74.859C97.6838 68.8742 98.4722 62.3056 97.4466 55.8961C96.421 49.4867 93.6224 43.492 89.3673 38.5902C85.1122 33.6885 79.5704 30.0751 73.3687 28.1589C67.167 26.2427 60.5528 26.1001 54.2742 27.7472C47.9957 29.3943 42.3032 32.7654 37.8408 37.4792C33.3784 42.193 30.324 48.0615 29.0231 54.4208C27.7222 60.7801 28.2267 67.3766 30.4796 73.4641C32.7324 79.5516 36.6437 84.8873 41.7711 88.8677C52.1918 96.9175 59.897 107.966 63.85 120.526C64.2722 121.871 65.1116 123.046 66.2465 123.881C67.3815 124.716 68.7529 125.168 70.162 125.171C70.7059 125.169 71.2476 125.102 71.7755 124.971" stroke="#331D2C" stroke-width="1.352" stroke-linecap="round" stroke-linejoin="round"/>
<path d="M69.8515 130.974C69.464 130.66 69.1513 130.264 68.9359 129.814C68.7205 129.365 68.6079 128.873 68.6062 128.374C68.6073 127.638 68.852 126.922 69.3023 126.339C69.7525 125.756 70.383 125.338 71.0955 125.151L71.7806 124.974L72.6248 124.751L85.6039 121.355L86.694 121.071L87.6264 120.826C88.0501 120.714 88.4918 120.687 88.926 120.746C89.3603 120.805 89.7786 120.95 90.1572 121.17C90.5357 121.391 90.8671 121.684 91.1323 122.033C91.3975 122.382 91.5914 122.78 91.7029 123.204C91.7732 123.48 91.809 123.764 91.8094 124.049C91.8096 124.787 91.5655 125.503 91.115 126.087C90.6646 126.671 90.0334 127.089 89.3201 127.276L72.7853 131.603C72.2818 131.736 71.7538 131.748 71.2446 131.639C70.7354 131.529 70.2594 131.3 69.8555 130.971" stroke="#331D2C" stroke-width="1.352" stroke-linecap="round" stroke-linejoin="round"/>
<path d="M72.509 71.3546L85.5907 121.304" stroke="#331D2C" stroke-width="1.352" stroke-linecap="round" stroke-linejoin="round"/>
<path d="M66.2366 74.6342C68.6772 76.4305 71.5584 76.4568 72.5091 71.3546" stroke="#331D2C" stroke-width="1.352" stroke-linecap="round" stroke-linejoin="round"/>
<path d="M66.2366 74.6342C67.829 71.0337 67.5042 65.2109 64.1917 66.0775C60.6583 67.0019 63.0727 72.3053 66.2366 74.6342Z" stroke="#331D2C" stroke-width="1.352" stroke-linecap="round" stroke-linejoin="round"/>
<path d="M72.6117 124.704L59.5288 74.7551C62.5875 78.9013 64.9966 77.4443 66.2353 74.6342" stroke="#331D2C" stroke-width="1.352" stroke-linecap="round" stroke-linejoin="round"/>
<path d="M91.5029 127.487C92.1387 127.763 92.6725 128.231 93.03 128.825C93.3876 129.42 93.5511 130.11 93.4979 130.802C93.4446 131.493 93.1773 132.151 92.7331 132.683C92.2888 133.215 91.6897 133.596 91.019 133.772L74.4868 138.101C74.0633 138.212 73.6221 138.238 73.1885 138.178C72.7548 138.119 72.3372 137.974 71.9595 137.753C71.5818 137.531 71.2514 137.238 70.9871 136.889C70.7229 136.54 70.53 136.142 70.4195 135.719C70.3463 135.443 70.3092 135.159 70.3091 134.874C70.3101 134.138 70.5549 133.422 71.0052 132.839C71.4554 132.256 72.0859 131.838 72.7984 131.651L89.3292 127.322C90.0519 127.134 90.8169 127.191 91.5029 127.487Z" stroke="#331D2C" stroke-width="1.352" stroke-linecap="round" stroke-linejoin="round"/>
<path d="M86.9951 141.773L81.4169 143.231C80.5699 143.454 79.6873 143.507 78.8197 143.389C77.952 143.27 77.1163 142.981 76.3603 142.539C75.6044 142.097 74.9431 141.51 74.4142 140.812C73.8854 140.114 73.4994 139.318 73.2783 138.471L91.7567 133.634C91.9003 134.187 91.9732 134.757 91.9737 135.328C91.9719 136.801 91.4826 138.232 90.5819 139.398C89.6813 140.564 88.4201 141.399 86.9951 141.773Z" stroke="#331D2C" stroke-width="1.352" stroke-linecap="round" stroke-linejoin="round"/>
<path d="M237.186 126.398C245.514 131.259 251.628 139.164 254.24 148.445C256.852 157.727 255.757 167.661 251.186 176.151C246.616 184.641 238.927 191.025 229.741 193.955C220.555 196.886 210.589 196.135 201.946 191.86C193.303 187.586 186.658 180.122 183.412 171.042C180.166 161.963 180.572 151.978 184.546 143.192C188.519 134.407 195.749 127.508 204.711 123.95C213.673 120.392 223.667 120.454 232.584 124.121C234.169 124.77 235.707 125.53 237.186 126.394" stroke="#331D2C" stroke-width="1.352" stroke-linecap="round" stroke-linejoin="round"/>
<path d="M91.3123 126.926L91.3964 126.909L117.089 122.064" stroke="#331D2C" stroke-width="1.352" stroke-linecap="round" stroke-linejoin="round"/>
<path d="M157.833 148.277L172.239 224.661L26.5828 252.141L6.00171 143.018L69.8515 130.971H69.8555" stroke="#331D2C" stroke-width="1.352" stroke-linecap="round" stroke-linejoin="round"/>
<path d="M24.3157 156.402L110.945 140.058" stroke="#331D2C" stroke-width="1.352" stroke-linecap="round" stroke-linejoin="round"/>
<path d="M18.4877 148.135C18.6061 148.768 18.534 149.423 18.2807 150.016C18.0273 150.608 17.6039 151.113 17.064 151.465C16.5242 151.817 15.892 152.002 15.2474 151.995C14.6028 151.988 13.9747 151.79 13.4424 151.427C12.9101 151.063 12.4976 150.55 12.2568 149.952C12.016 149.354 11.9578 148.698 12.0896 148.067C12.2214 147.436 12.5373 146.858 12.9973 146.407C13.4573 145.955 14.0408 145.65 14.6742 145.53C15.0957 145.45 15.5288 145.454 15.9487 145.541C16.3687 145.629 16.7672 145.799 17.1215 146.041C17.4757 146.283 17.7787 146.592 18.0132 146.952C18.2476 147.311 18.4089 147.713 18.4877 148.135Z" stroke="#331D2C" stroke-width="1.352" stroke-linecap="round" stroke-linejoin="round"/>
<path d="M32.1427 145.556C32.2622 146.19 32.1911 146.844 31.9385 147.438C31.6859 148.031 31.2631 148.536 30.7235 148.889C30.1839 149.242 29.5518 149.427 28.907 149.421C28.2622 149.415 27.6338 149.218 27.101 148.855C26.5682 148.492 26.155 147.979 25.9137 147.381C25.6724 146.783 25.6138 146.127 25.7452 145.495C25.8767 144.864 26.1923 144.286 26.6522 143.834C27.1122 143.382 27.6957 143.077 28.3292 142.956C28.7503 142.876 29.183 142.88 29.6026 142.968C30.0222 143.055 30.4205 143.225 30.7746 143.466C31.1288 143.707 31.4319 144.016 31.6666 144.375C31.9014 144.734 32.0631 145.135 32.1427 145.556Z" stroke="#331D2C" stroke-width="1.352" stroke-linecap="round" stroke-linejoin="round"/>
<path d="M45.7989 142.983C45.9173 143.616 45.8453 144.271 45.5919 144.864C45.3385 145.456 44.9152 145.961 44.3753 146.313C43.8354 146.665 43.2033 146.849 42.5587 146.843C41.9141 146.836 41.286 146.638 40.7537 146.274C40.2214 145.911 39.8088 145.398 39.5681 144.8C39.3273 144.202 39.2691 143.546 39.4009 142.915C39.5327 142.284 39.8486 141.706 40.3086 141.254C40.7686 140.803 41.3521 140.498 41.9854 140.378C42.4069 140.298 42.8399 140.302 43.2598 140.39C43.6796 140.478 44.078 140.648 44.4321 140.89C44.7863 141.132 45.0893 141.441 45.3238 141.8C45.5584 142.159 45.7198 142.561 45.7989 142.983Z" stroke="#331D2C" stroke-width="1.352" stroke-linecap="round" stroke-linejoin="round"/>
<path d="M181.227 152.748L157.833 148.277L113.692 139.84L117.089 122.064L117.53 119.779L131.104 48.7457L247.766 71.0468L237.187 126.394V126.398" stroke="#331D2C" stroke-width="1.352" stroke-linecap="round" stroke-linejoin="round"/>
<path d="M141.644 63.717L234.462 81.4576" stroke="#331D2C" stroke-width="1.352" stroke-linecap="round" stroke-linejoin="round"/>
<path d="M139.243 56.545C139.142 57.074 138.886 57.5612 138.508 57.9449C138.13 58.3287 137.647 58.5917 137.119 58.7008C136.592 58.8099 136.044 58.7601 135.545 58.5578C135.046 58.3555 134.618 58.0097 134.315 57.5642C134.012 57.1187 133.849 56.5934 133.845 56.0548C133.84 55.5162 133.996 54.9885 134.292 54.5384C134.588 54.0882 135.01 53.7359 135.506 53.526C136.002 53.316 136.549 53.2578 137.078 53.3588C137.43 53.4258 137.764 53.5614 138.063 53.7578C138.362 53.9543 138.62 54.2076 138.821 54.5035C139.022 54.7994 139.162 55.132 139.235 55.4823C139.307 55.8325 139.31 56.1937 139.243 56.545Z" stroke="#331D2C" stroke-width="1.352" stroke-linecap="round" stroke-linejoin="round"/>
<path d="M150.641 58.7213C150.54 59.2506 150.284 59.7381 149.906 60.122C149.528 60.506 149.045 60.7692 148.517 60.8784C147.989 60.9876 147.441 60.9378 146.942 60.7355C146.442 60.5331 146.014 60.1872 145.711 59.7415C145.408 59.2958 145.245 58.7703 145.24 58.2314C145.236 57.6926 145.392 57.1646 145.688 56.7142C145.984 56.2638 146.406 55.9113 146.903 55.7012C147.399 55.4911 147.946 55.4328 148.475 55.5338C148.827 55.6004 149.162 55.7357 149.462 55.932C149.761 56.1284 150.019 56.3819 150.22 56.678C150.421 56.9741 150.562 57.3071 150.634 57.6577C150.707 58.0083 150.709 58.3698 150.641 58.7213Z" stroke="#331D2C" stroke-width="1.352" stroke-linecap="round" stroke-linejoin="round"/>
<path d="M162.042 60.9042C161.94 61.4331 161.684 61.9198 161.305 62.303C160.926 62.6861 160.443 62.9484 159.915 63.0568C159.387 63.1651 158.84 63.1146 158.341 62.9117C157.842 62.7088 157.414 62.3625 157.112 61.9167C156.809 61.4708 156.646 60.9454 156.642 60.4068C156.639 59.8681 156.795 59.3405 157.091 58.8904C157.387 58.4404 157.809 58.0882 158.305 57.8784C158.802 57.6685 159.349 57.6104 159.878 57.7114C160.588 57.8483 161.215 58.2615 161.62 58.8601C162.026 59.4587 162.178 60.1939 162.042 60.9042Z" stroke="#331D2C" stroke-width="1.352" stroke-linecap="round" stroke-linejoin="round"/>
<path d="M232.004 115.333C233 116.814 233.231 119.423 232.591 124.122" stroke="#331D2C" stroke-width="1.352" stroke-linecap="round" stroke-linejoin="round"/>
<path d="M222.753 121.303C224.047 117.703 225.332 114.702 227.291 113.822" stroke="#331D2C" stroke-width="1.352" stroke-linecap="round" stroke-linejoin="round"/>
<path d="M199.554 100.056C202.484 104.23 199.159 116.712 199.701 126.224" stroke="#331D2C" stroke-width="1.352" stroke-linecap="round" stroke-linejoin="round"/>
<path d="M176.235 81.8272C182.694 89.8145 169.791 125.175 178.498 126.585C187.144 127.98 188.229 103.15 194.87 99.1668" stroke="#331D2C" stroke-width="1.352" stroke-linecap="round" stroke-linejoin="round"/>
<path d="M142.524 83.5604C149.164 91.6818 133.904 132.577 147.711 134.893C161.519 137.208 162.045 85.471 171.626 80.6266" stroke="#331D2C" stroke-width="1.352" stroke-linecap="round" stroke-linejoin="round"/>
<path d="M117.53 119.779C123.01 120.508 128.211 86.7032 137.616 82.5781" stroke="#331D2C" stroke-width="1.352" stroke-linecap="round" stroke-linejoin="round"/>
<path d="M52.4081 171.68C54.3457 173.333 55.8684 175.419 56.8536 177.768C57.8389 180.117 58.2592 182.664 58.0808 185.206C57.9024 187.747 57.1302 190.21 55.8264 192.399C54.5226 194.587 52.7235 196.439 50.5738 197.806C48.4241 199.173 45.9837 200.016 43.4488 200.268C40.9139 200.52 38.3553 200.173 35.9786 199.257C33.6019 198.34 31.4735 196.878 29.7645 194.989C28.0554 193.1 26.8134 190.837 26.1383 188.38C26.0173 187.953 25.92 187.522 25.8358 187.082C25.2101 183.771 25.6275 180.346 27.0305 177.282C28.4336 174.217 30.7531 171.664 33.669 169.974C36.5849 168.284 39.9535 167.54 43.3099 167.846C46.6664 168.151 49.8453 169.491 52.4081 171.68Z" stroke="#331D2C" stroke-width="1.352" stroke-linecap="round" stroke-linejoin="round"/>
<path d="M49.3414 175.054C51.3892 176.759 52.7952 179.111 53.3276 181.722C53.86 184.333 53.4872 187.048 52.2704 189.419C51.0537 191.79 49.0657 193.675 46.634 194.765C44.2022 195.855 41.4717 196.084 38.8924 195.415C36.313 194.745 34.0386 193.217 32.4438 191.082C30.8491 188.947 30.0291 186.333 30.119 183.67C30.2089 181.006 31.2033 178.453 32.9383 176.43C34.6734 174.408 37.0457 173.036 39.6643 172.542C41.3626 172.217 43.1121 172.274 44.7858 172.708C46.4595 173.143 48.0156 173.944 49.3414 175.054Z" stroke="#331D2C" stroke-width="1.352" stroke-linecap="round" stroke-linejoin="round"/>
<path d="M44.0117 195.581L44.8559 200.067" stroke="#331D2C" stroke-width="1.352" stroke-linecap="round" stroke-linejoin="round"/>
<path d="M49.3416 175.054L52.4081 171.68" stroke="#331D2C" stroke-width="1.352" stroke-linecap="round" stroke-linejoin="round"/>
<path d="M30.5647 187.544L26.1384 188.38L26.0845 188.389" stroke="#331D2C" stroke-width="1.352" stroke-linecap="round" stroke-linejoin="round"/>
<path d="M147.738 216.122L161.157 213.589L148.929 148.761" stroke="#331D2C" stroke-width="1.352" stroke-linecap="round" stroke-linejoin="round"/>
<path d="M129.53 219.554L141.302 217.335" stroke="#331D2C" stroke-width="1.352" stroke-linecap="round" stroke-linejoin="round"/>
<path d="M123.099 220.767L129.53 219.558" stroke="#331D2C" stroke-width="1.352" stroke-linecap="round" stroke-linejoin="round"/>
<path d="M111.324 222.99L123.098 220.771" stroke="#331D2C" stroke-width="1.352" stroke-linecap="round" stroke-linejoin="round"/>
<path d="M93.1165 226.426L104.891 224.204" stroke="#331D2C" stroke-width="1.352" stroke-linecap="round" stroke-linejoin="round"/>
<path d="M74.5054 229.937L86.6849 227.64" stroke="#331D2C" stroke-width="1.352" stroke-linecap="round" stroke-linejoin="round"/>
<path d="M45.6832 213.037L33.4852 215.339L32.1216 208.103L44.3182 205.805L45.6832 213.037Z" stroke="#331D2C" stroke-width="1.352" stroke-linecap="round" stroke-linejoin="round"/>
<path d="M47.7188 223.821L35.5209 226.123L34.1572 218.887L46.3539 216.588L47.7188 223.821Z" stroke="#331D2C" stroke-width="1.352" stroke-linecap="round" stroke-linejoin="round"/>
<path d="M49.7505 234.605L37.5578 236.908L36.1929 229.67L48.3855 227.373L49.7505 234.605Z" stroke="#331D2C" stroke-width="1.352" stroke-linecap="round" stroke-linejoin="round"/>
<path d="M93.1166 226.426L86.685 227.64L85.32 220.403L74.1846 161.39L80.6215 160.176L91.7517 219.189L93.1166 226.426Z" stroke="#331D2C" stroke-width="1.352" stroke-linecap="round" stroke-linejoin="round"/>
<path d="M111.324 222.99L104.891 224.204L98.7749 191.79L92.3918 157.954L98.8288 156.74L105.212 190.576L111.324 222.99Z" stroke="#331D2C" stroke-width="1.352" stroke-linecap="round" stroke-linejoin="round"/>
<path d="M129.53 219.558L123.098 220.771V220.767L119.698 202.751L110.599 154.522L117.031 153.308L126.131 201.538L129.53 219.554V219.558Z" stroke="#331D2C" stroke-width="1.352" stroke-linecap="round" stroke-linejoin="round"/>
<path d="M147.738 216.122L141.302 217.335L133.203 174.382L128.806 151.086L135.239 149.872L139.635 173.168L147.738 216.122Z" stroke="#331D2C" stroke-width="1.352" stroke-linecap="round" stroke-linejoin="round"/>
<path d="M85.3198 220.403L91.7515 219.189" stroke="#331D2C" stroke-width="1.352" stroke-linecap="round" stroke-linejoin="round"/>
<path d="M98.7749 191.79L105.207 190.576" stroke="#331D2C" stroke-width="1.352" stroke-linecap="round" stroke-linejoin="round"/>
<path d="M119.698 202.751L126.131 201.538" stroke="#331D2C" stroke-width="1.352" stroke-linecap="round" stroke-linejoin="round"/>
<path d="M133.203 174.382L139.635 173.168" stroke="#331D2C" stroke-width="1.352" stroke-linecap="round" stroke-linejoin="round"/>
<path d="M244.85 132.305L218.29 158.865L191.731 185.424" stroke="#331D2C" stroke-width="1.352" stroke-linecap="round" stroke-linejoin="round"/>
<path d="M191.731 132.305L218.29 158.865" stroke="#331D2C" stroke-width="1.352" stroke-linecap="round" stroke-linejoin="round"/>
<path d="M52.1057 21.9473L48.8918 10.0334" stroke="#331D2C" stroke-width="1.352" stroke-linecap="round" stroke-linejoin="round"/>
<path d="M66.0327 21.9474L67.3306 11.2656" stroke="#331D2C" stroke-width="1.352" stroke-linecap="round" stroke-linejoin="round"/>
<path d="M39.8104 30.1437L32.7344 21.9473" stroke="#331D2C" stroke-width="1.352" stroke-linecap="round" stroke-linejoin="round"/>
</svg>
