<svg width="18" height="18" viewBox="0 0 18 18" fill="none" xmlns="http://www.w3.org/2000/svg">
  <path fill-rule="evenodd" clip-rule="evenodd" d="M2.95488 1.23249C2.72385 1.01721 2.41827 0.900015 2.10253 0.905585C1.78679 0.911156 1.48554 1.03906 1.26225 1.26236C1.03895 1.48566 0.911045 1.78691 0.905474 2.10265C0.899903 2.41838 1.0171 2.72396 1.23238 2.95499L7.27738 8.99999L1.23238 15.045C1.11264 15.1566 1.0166 15.2911 0.94999 15.4406C0.883378 15.5901 0.847559 15.7515 0.844672 15.9151C0.841785 16.0788 0.871887 16.2413 0.933184 16.3931C0.994481 16.5448 1.08572 16.6827 1.20145 16.7984C1.31718 16.9142 1.45503 17.0054 1.60679 17.0667C1.75854 17.128 1.92109 17.1581 2.08473 17.1552C2.24837 17.1523 2.40976 17.1165 2.55926 17.0499C2.70876 16.9833 2.84331 16.8872 2.95488 16.7675L8.99988 10.7225L15.0449 16.7675C15.1565 16.8872 15.291 16.9833 15.4405 17.0499C15.59 17.1165 15.7514 17.1523 15.915 17.1552C16.0787 17.1581 16.2412 17.128 16.393 17.0667C16.5447 17.0054 16.6826 16.9142 16.7983 16.7984C16.914 16.6827 17.0053 16.5448 17.0666 16.3931C17.1279 16.2413 17.158 16.0788 17.1551 15.9151C17.1522 15.7515 17.1164 15.5901 17.0498 15.4406C16.9832 15.2911 16.8871 15.1566 16.7674 15.045L10.7224 8.99999L16.7674 2.95499C16.9827 2.72396 17.0999 2.41838 17.0943 2.10265C17.0887 1.78691 16.9608 1.48566 16.7375 1.26236C16.5142 1.03906 16.213 0.911156 15.8972 0.905585C15.5815 0.900015 15.2759 1.01721 15.0449 1.23249L8.99988 7.27749L2.95488 1.23249Z" fill="#D7C6CE"/>
</svg>
