<svg width="42" height="69" viewBox="0 0 42 69" fill="none" xmlns="http://www.w3.org/2000/svg">
<path d="M4.26534 56.3574C3.40602 57.7606 6.78961 59.5794 18.659 64.1526C31.2266 68.9855 34.1807 69.6091 34.5567 67.6863C35.0401 65.036 5.71545 54.1228 4.26534 56.3574Z" fill="#331D2C"/>
<path d="M21.7741 1.11615C17.2627 -1.06651 16.2959 -0.59885 8.40082 7.56006C0.237239 15.9788 -0.944277 17.7978 0.55954 19.4087C3.29864 22.3189 6.19891 20.76 16.833 10.8341C24.6744 3.5067 25.104 2.72714 21.7741 1.11615Z" fill="#331D2C"/>
<path d="M38.9607 28.1912C35.7382 26.5802 34.2344 26.6322 28.4875 28.503C11.4622 34.1155 -1.15925 36.8177 5.17826 39.8318C7.75623 41.079 11.0325 40.3515 31.1729 34.4273C42.2905 31.1013 43.2573 30.3738 38.9607 28.1912Z" fill="#331D2C"/>
</svg>
