<svg width="103" height="100" viewBox="0 0 103 100" fill="none" xmlns="http://www.w3.org/2000/svg">
<path d="M51.2393 0C22.9443 0 0 22.9401 0 51.2393C0 73.8782 14.6816 93.0849 35.0406 99.8602C37.6014 100.335 38.5415 98.7487 38.5415 97.3953C38.5415 96.1735 38.494 92.1371 38.4719 87.8556C24.2171 90.9552 21.2092 81.81 21.2092 81.81C18.8783 75.8875 15.52 74.3127 15.52 74.3127C10.871 71.1325 15.8704 71.1978 15.8704 71.1978C21.0157 71.5593 23.725 76.478 23.725 76.478C28.295 84.3114 35.7118 82.0468 38.6357 80.7375C39.0956 77.4258 40.4235 75.1654 41.8889 73.8859C30.5079 72.5902 18.544 68.1967 18.544 48.5632C18.544 42.969 20.5456 38.3981 23.8234 34.8098C23.2914 33.5192 21.5375 28.3077 24.3198 21.2499C24.3198 21.2499 28.6225 19.8728 38.4142 26.5021C42.5015 25.3668 46.8848 24.7975 51.2393 24.778C55.5939 24.7975 59.9806 25.3668 64.0755 26.5021C73.8553 19.8728 78.1521 21.2499 78.1521 21.2499C80.9412 28.3077 79.1865 33.5192 78.6544 34.8098C81.9398 38.3981 83.9279 42.969 83.9279 48.5632C83.9279 68.2433 71.9411 72.5766 60.5313 73.8451C62.3692 75.4352 64.0068 78.5535 64.0068 83.3339C64.0068 90.1898 63.9474 95.7076 63.9474 97.3953C63.9474 98.7589 64.8697 100.357 67.4669 99.8534C87.8149 93.0705 102.478 73.8706 102.478 51.2393C102.478 22.9401 79.5369 0 51.2393 0ZM19.1908 72.9915C19.078 73.2461 18.6775 73.3224 18.3126 73.1477C17.941 72.9805 17.7322 72.6335 17.8527 72.3781C17.963 72.1159 18.3644 72.0429 18.7352 72.2185C19.1076 72.3857 19.3198 72.7361 19.1908 72.9915ZM21.7112 75.2404C21.4668 75.467 20.9891 75.3618 20.665 75.0037C20.3298 74.6465 20.2671 74.1688 20.5148 73.9389C20.7668 73.7123 21.2301 73.8184 21.5661 74.1756C21.9013 74.537 21.9666 75.0114 21.7112 75.2404ZM23.4403 78.1179C23.1264 78.3359 22.613 78.1314 22.2957 77.6758C21.9817 77.2202 21.9817 76.6737 22.3025 76.4548C22.6206 76.2359 23.1264 76.4327 23.4479 76.885C23.761 77.3483 23.761 77.8947 23.4403 78.1179ZM26.3646 81.4503C26.0837 81.76 25.4855 81.6769 25.0477 81.2543C24.5997 80.8411 24.475 80.2548 24.7567 79.9451C25.0409 79.6345 25.6425 79.7219 26.0837 80.1411C26.5283 80.5535 26.6641 81.144 26.3646 81.4503ZM30.1439 82.5753C30.02 82.9767 29.4439 83.1591 28.8635 82.9886C28.284 82.8129 27.9047 82.3428 28.0218 81.9373C28.1423 81.5334 28.721 81.3433 29.3056 81.5257C29.8843 81.7005 30.2644 82.1672 30.1439 82.5753ZM34.4449 83.0525C34.4594 83.4751 33.9672 83.8255 33.358 83.8332C32.7454 83.8467 32.2499 83.5048 32.2431 83.089C32.2431 82.6622 32.7242 82.3152 33.3368 82.305C33.946 82.2931 34.4449 82.6325 34.4449 83.0525ZM38.6702 82.8906C38.7432 83.3029 38.3198 83.7263 37.7148 83.8392C37.12 83.9478 36.5693 83.6933 36.4938 83.2843C36.42 82.8617 36.851 82.4383 37.445 82.3289C38.0508 82.2236 38.593 82.4714 38.6702 82.8906Z" fill="#331D2C"/>
</svg>
