<svg width="100" height="100" viewBox="0 0 100 100" fill="none" xmlns="http://www.w3.org/2000/svg">
<path d="M85.2047 85.2067H70.3879V62.0021C70.3879 56.4687 70.2891 49.3456 62.6816 49.3456C54.9645 49.3456 53.7837 55.3744 53.7837 61.5993V85.2052H38.9668V37.4871H53.191V44.0082H53.3901C54.8136 41.5742 56.8707 39.5719 59.3421 38.2145C61.8135 36.8572 64.6068 36.1955 67.4245 36.3001C82.4421 36.3001 85.2109 46.1784 85.2109 59.0294L85.2047 85.2067ZM22.2484 30.9643C20.5478 30.9646 18.8853 30.4606 17.4711 29.516C16.0569 28.5715 14.9547 27.2287 14.3036 25.6576C13.6525 24.0865 13.4819 22.3577 13.8134 20.6896C14.1449 19.0216 14.9635 17.4893 16.1658 16.2865C17.3681 15.0837 18.9001 14.2645 20.568 13.9324C22.2358 13.6004 23.9647 13.7703 25.5359 14.4209C27.1072 15.0714 28.4503 16.1733 29.3954 17.5871C30.3404 19.001 30.845 20.6634 30.8453 22.3641C30.8455 23.4933 30.6233 24.6115 30.1914 25.6548C29.7594 26.6981 29.1263 27.6461 28.328 28.4447C27.5297 29.2433 26.5819 29.8769 25.5388 30.3092C24.4956 30.7415 23.3776 30.9641 22.2484 30.9643ZM29.6569 85.2067H14.8246V37.4871H29.6569V85.2067ZM92.5916 0.00681316H7.37913C5.44504 -0.0150137 3.58132 0.731931 2.19767 2.08351C0.814009 3.43509 0.0236044 5.28072 0 7.21485V92.7837C0.0227965 94.7188 0.812737 96.5656 2.19635 97.9186C3.57996 99.2716 5.44408 100.02 7.37913 99.9994H92.5916C94.5305 100.024 96.3998 99.2775 97.7889 97.9245C99.1779 96.5716 99.9732 94.7226 100 92.7837V7.20868C99.9724 5.27071 99.1766 3.42298 97.7875 2.07143C96.3983 0.719888 94.5295 -0.0249226 92.5916 0.000636757" fill="#331D2C"/>
</svg>
